G04 #@! TF.FileFunction,Legend,Top*
%FSLAX46Y46*%
G04 Gerber Fmt 4.6, Leading zero omitted, Abs format (unit mm)*
G04 Created by KiCad (PCBNEW 4.0.7) date 01/15/18 20:31:51*
%MOMM*%
%LPD*%
G01*
G04 APERTURE LIST*
%ADD10C,0.100000*%
%ADD11C,0.150000*%
%ADD12C,0.300000*%
%ADD13C,0.120000*%
G04 APERTURE END LIST*
D10*
D11*
X81081714Y-66952762D02*
X81224571Y-67000381D01*
X81462667Y-67000381D01*
X81557905Y-66952762D01*
X81605524Y-66905143D01*
X81653143Y-66809905D01*
X81653143Y-66714667D01*
X81605524Y-66619429D01*
X81557905Y-66571810D01*
X81462667Y-66524190D01*
X81272190Y-66476571D01*
X81176952Y-66428952D01*
X81129333Y-66381333D01*
X81081714Y-66286095D01*
X81081714Y-66190857D01*
X81129333Y-66095619D01*
X81176952Y-66048000D01*
X81272190Y-66000381D01*
X81510286Y-66000381D01*
X81653143Y-66048000D01*
X82081714Y-67000381D02*
X82081714Y-66000381D01*
X82319809Y-66000381D01*
X82462667Y-66048000D01*
X82557905Y-66143238D01*
X82605524Y-66238476D01*
X82653143Y-66428952D01*
X82653143Y-66571810D01*
X82605524Y-66762286D01*
X82557905Y-66857524D01*
X82462667Y-66952762D01*
X82319809Y-67000381D01*
X82081714Y-67000381D01*
X83034095Y-66714667D02*
X83510286Y-66714667D01*
X82938857Y-67000381D02*
X83272190Y-66000381D01*
X83605524Y-67000381D01*
X81661096Y-73922000D02*
X81565858Y-73874381D01*
X81423001Y-73874381D01*
X81280143Y-73922000D01*
X81184905Y-74017238D01*
X81137286Y-74112476D01*
X81089667Y-74302952D01*
X81089667Y-74445810D01*
X81137286Y-74636286D01*
X81184905Y-74731524D01*
X81280143Y-74826762D01*
X81423001Y-74874381D01*
X81518239Y-74874381D01*
X81661096Y-74826762D01*
X81708715Y-74779143D01*
X81708715Y-74445810D01*
X81518239Y-74445810D01*
X82137286Y-74874381D02*
X82137286Y-73874381D01*
X82708715Y-74874381D01*
X82708715Y-73874381D01*
X83184905Y-74874381D02*
X83184905Y-73874381D01*
X83423000Y-73874381D01*
X83565858Y-73922000D01*
X83661096Y-74017238D01*
X83708715Y-74112476D01*
X83756334Y-74302952D01*
X83756334Y-74445810D01*
X83708715Y-74636286D01*
X83661096Y-74731524D01*
X83565858Y-74826762D01*
X83423000Y-74874381D01*
X83184905Y-74874381D01*
X77676524Y-74826762D02*
X77819381Y-74874381D01*
X78057477Y-74874381D01*
X78152715Y-74826762D01*
X78200334Y-74779143D01*
X78247953Y-74683905D01*
X78247953Y-74588667D01*
X78200334Y-74493429D01*
X78152715Y-74445810D01*
X78057477Y-74398190D01*
X77867000Y-74350571D01*
X77771762Y-74302952D01*
X77724143Y-74255333D01*
X77676524Y-74160095D01*
X77676524Y-74064857D01*
X77724143Y-73969619D01*
X77771762Y-73922000D01*
X77867000Y-73874381D01*
X78105096Y-73874381D01*
X78247953Y-73922000D01*
X79247953Y-74779143D02*
X79200334Y-74826762D01*
X79057477Y-74874381D01*
X78962239Y-74874381D01*
X78819381Y-74826762D01*
X78724143Y-74731524D01*
X78676524Y-74636286D01*
X78628905Y-74445810D01*
X78628905Y-74302952D01*
X78676524Y-74112476D01*
X78724143Y-74017238D01*
X78819381Y-73922000D01*
X78962239Y-73874381D01*
X79057477Y-73874381D01*
X79200334Y-73922000D01*
X79247953Y-73969619D01*
X80152715Y-74874381D02*
X79676524Y-74874381D01*
X79676524Y-73874381D01*
X92662572Y-99639381D02*
X92662572Y-98639381D01*
X92995906Y-99353667D01*
X93329239Y-98639381D01*
X93329239Y-99639381D01*
X93805429Y-99639381D02*
X93805429Y-98639381D01*
X94234000Y-99591762D02*
X94376857Y-99639381D01*
X94614953Y-99639381D01*
X94710191Y-99591762D01*
X94757810Y-99544143D01*
X94805429Y-99448905D01*
X94805429Y-99353667D01*
X94757810Y-99258429D01*
X94710191Y-99210810D01*
X94614953Y-99163190D01*
X94424476Y-99115571D01*
X94329238Y-99067952D01*
X94281619Y-99020333D01*
X94234000Y-98925095D01*
X94234000Y-98829857D01*
X94281619Y-98734619D01*
X94329238Y-98687000D01*
X94424476Y-98639381D01*
X94662572Y-98639381D01*
X94805429Y-98687000D01*
X95424476Y-98639381D02*
X95614953Y-98639381D01*
X95710191Y-98687000D01*
X95805429Y-98782238D01*
X95853048Y-98972714D01*
X95853048Y-99306048D01*
X95805429Y-99496524D01*
X95710191Y-99591762D01*
X95614953Y-99639381D01*
X95424476Y-99639381D01*
X95329238Y-99591762D01*
X95234000Y-99496524D01*
X95186381Y-99306048D01*
X95186381Y-98972714D01*
X95234000Y-98782238D01*
X95329238Y-98687000D01*
X95424476Y-98639381D01*
X93075286Y-101877762D02*
X93218143Y-101925381D01*
X93456239Y-101925381D01*
X93551477Y-101877762D01*
X93599096Y-101830143D01*
X93646715Y-101734905D01*
X93646715Y-101639667D01*
X93599096Y-101544429D01*
X93551477Y-101496810D01*
X93456239Y-101449190D01*
X93265762Y-101401571D01*
X93170524Y-101353952D01*
X93122905Y-101306333D01*
X93075286Y-101211095D01*
X93075286Y-101115857D01*
X93122905Y-101020619D01*
X93170524Y-100973000D01*
X93265762Y-100925381D01*
X93503858Y-100925381D01*
X93646715Y-100973000D01*
X94646715Y-101830143D02*
X94599096Y-101877762D01*
X94456239Y-101925381D01*
X94361001Y-101925381D01*
X94218143Y-101877762D01*
X94122905Y-101782524D01*
X94075286Y-101687286D01*
X94027667Y-101496810D01*
X94027667Y-101353952D01*
X94075286Y-101163476D01*
X94122905Y-101068238D01*
X94218143Y-100973000D01*
X94361001Y-100925381D01*
X94456239Y-100925381D01*
X94599096Y-100973000D01*
X94646715Y-101020619D01*
X95075286Y-101925381D02*
X95075286Y-100925381D01*
X95646715Y-101925381D02*
X95218143Y-101353952D01*
X95646715Y-100925381D02*
X95075286Y-101496810D01*
X93813381Y-104592381D02*
X93480047Y-104116190D01*
X93241952Y-104592381D02*
X93241952Y-103592381D01*
X93622905Y-103592381D01*
X93718143Y-103640000D01*
X93765762Y-103687619D01*
X93813381Y-103782857D01*
X93813381Y-103925714D01*
X93765762Y-104020952D01*
X93718143Y-104068571D01*
X93622905Y-104116190D01*
X93241952Y-104116190D01*
X94194333Y-104544762D02*
X94337190Y-104592381D01*
X94575286Y-104592381D01*
X94670524Y-104544762D01*
X94718143Y-104497143D01*
X94765762Y-104401905D01*
X94765762Y-104306667D01*
X94718143Y-104211429D01*
X94670524Y-104163810D01*
X94575286Y-104116190D01*
X94384809Y-104068571D01*
X94289571Y-104020952D01*
X94241952Y-103973333D01*
X94194333Y-103878095D01*
X94194333Y-103782857D01*
X94241952Y-103687619D01*
X94289571Y-103640000D01*
X94384809Y-103592381D01*
X94622905Y-103592381D01*
X94765762Y-103640000D01*
X95051476Y-103592381D02*
X95622905Y-103592381D01*
X95337190Y-104592381D02*
X95337190Y-103592381D01*
X102568572Y-102179381D02*
X102568572Y-101179381D01*
X102901906Y-101893667D01*
X103235239Y-101179381D01*
X103235239Y-102179381D01*
X103901905Y-101179381D02*
X104092382Y-101179381D01*
X104187620Y-101227000D01*
X104282858Y-101322238D01*
X104330477Y-101512714D01*
X104330477Y-101846048D01*
X104282858Y-102036524D01*
X104187620Y-102131762D01*
X104092382Y-102179381D01*
X103901905Y-102179381D01*
X103806667Y-102131762D01*
X103711429Y-102036524D01*
X103663810Y-101846048D01*
X103663810Y-101512714D01*
X103711429Y-101322238D01*
X103806667Y-101227000D01*
X103901905Y-101179381D01*
X104711429Y-102131762D02*
X104854286Y-102179381D01*
X105092382Y-102179381D01*
X105187620Y-102131762D01*
X105235239Y-102084143D01*
X105282858Y-101988905D01*
X105282858Y-101893667D01*
X105235239Y-101798429D01*
X105187620Y-101750810D01*
X105092382Y-101703190D01*
X104901905Y-101655571D01*
X104806667Y-101607952D01*
X104759048Y-101560333D01*
X104711429Y-101465095D01*
X104711429Y-101369857D01*
X104759048Y-101274619D01*
X104806667Y-101227000D01*
X104901905Y-101179381D01*
X105140001Y-101179381D01*
X105282858Y-101227000D01*
X105711429Y-102179381D02*
X105711429Y-101179381D01*
X103124096Y-103767000D02*
X103028858Y-103719381D01*
X102886001Y-103719381D01*
X102743143Y-103767000D01*
X102647905Y-103862238D01*
X102600286Y-103957476D01*
X102552667Y-104147952D01*
X102552667Y-104290810D01*
X102600286Y-104481286D01*
X102647905Y-104576524D01*
X102743143Y-104671762D01*
X102886001Y-104719381D01*
X102981239Y-104719381D01*
X103124096Y-104671762D01*
X103171715Y-104624143D01*
X103171715Y-104290810D01*
X102981239Y-104290810D01*
X103600286Y-104719381D02*
X103600286Y-103719381D01*
X104171715Y-104719381D01*
X104171715Y-103719381D01*
X104647905Y-104719381D02*
X104647905Y-103719381D01*
X104886000Y-103719381D01*
X105028858Y-103767000D01*
X105124096Y-103862238D01*
X105171715Y-103957476D01*
X105219334Y-104147952D01*
X105219334Y-104290810D01*
X105171715Y-104481286D01*
X105124096Y-104576524D01*
X105028858Y-104671762D01*
X104886000Y-104719381D01*
X104647905Y-104719381D01*
D12*
X118681572Y-102723143D02*
X119824429Y-102723143D01*
X118935572Y-72878143D02*
X120078429Y-72878143D01*
X119507000Y-73449571D02*
X119507000Y-72306714D01*
D13*
X105934211Y-80038630D02*
G75*
G02X110436000Y-77192000I8111789J-7845370D01*
G01*
X122157789Y-95729370D02*
G75*
G02X117656000Y-98576000I-8111789J7845370D01*
G01*
X105934211Y-95729370D02*
G75*
G03X110436000Y-98576000I8111789J7845370D01*
G01*
X122157789Y-80038630D02*
G75*
G03X117656000Y-77192000I-8111789J-7845370D01*
G01*
X112146000Y-73574000D02*
X110436000Y-73574000D01*
X110436000Y-77192000D02*
X110436000Y-73574000D01*
X105936000Y-84024000D02*
X105936000Y-80036700D01*
X108136000Y-86224000D02*
X105936000Y-84024000D01*
X108136000Y-89544000D02*
X108136000Y-86224000D01*
X108136000Y-89544000D02*
X105936000Y-91744000D01*
X105936000Y-95731300D02*
X105936000Y-91744000D01*
X112146000Y-102194000D02*
X110436000Y-102194000D01*
X110436000Y-102194000D02*
X110436000Y-98576000D01*
X117656000Y-98576000D02*
X117656000Y-102194000D01*
X115946000Y-102194000D02*
X117656000Y-102194000D01*
X122156000Y-80036700D02*
X122156000Y-95731300D01*
X115946000Y-73574000D02*
X117656000Y-73574000D01*
X117656000Y-73574000D02*
X117656000Y-77192000D01*
X51470000Y-92298000D02*
X51470000Y-91598000D01*
X52670000Y-91598000D02*
X52670000Y-92298000D01*
X58912200Y-92933000D02*
X58912200Y-92233000D01*
X60112200Y-92233000D02*
X60112200Y-92933000D01*
X87212000Y-81822000D02*
X81712000Y-81822000D01*
X87212000Y-79722000D02*
X81712000Y-79722000D01*
X87212000Y-81822000D02*
X87212000Y-79722000D01*
X84320000Y-82335000D02*
X83320000Y-82335000D01*
X83320000Y-84035000D02*
X84320000Y-84035000D01*
X84320000Y-89955000D02*
X83320000Y-89955000D01*
X83320000Y-91655000D02*
X84320000Y-91655000D01*
X105195000Y-71255000D02*
X105195000Y-72255000D01*
X106895000Y-72255000D02*
X106895000Y-71255000D01*
X57606000Y-103190000D02*
X57606000Y-105090000D01*
X57606000Y-105090000D02*
X62306000Y-105090000D01*
X57606000Y-103190000D02*
X62306000Y-103190000D01*
X57606000Y-98110000D02*
X57606000Y-100010000D01*
X57606000Y-100010000D02*
X62306000Y-100010000D01*
X57606000Y-98110000D02*
X62306000Y-98110000D01*
X92240000Y-99622000D02*
X92240000Y-105922000D01*
X79370000Y-100322000D02*
X79370000Y-105922000D01*
X92240000Y-95912000D02*
X92240000Y-97722000D01*
X79370000Y-95912000D02*
X90630000Y-95912000D01*
X79370000Y-97072000D02*
X79370000Y-95912000D01*
X92130000Y-95912000D02*
X92240000Y-95912000D01*
X96460000Y-105470000D02*
X101660000Y-105470000D01*
X96460000Y-100330000D02*
X96460000Y-105470000D01*
X101660000Y-97730000D02*
X101660000Y-105470000D01*
X96460000Y-100330000D02*
X99060000Y-100330000D01*
X99060000Y-100330000D02*
X99060000Y-97730000D01*
X99060000Y-97730000D02*
X101660000Y-97730000D01*
X96460000Y-99060000D02*
X96460000Y-97730000D01*
X96460000Y-97730000D02*
X97790000Y-97730000D01*
X78045000Y-73085000D02*
X83245000Y-73085000D01*
X78045000Y-70485000D02*
X78045000Y-73085000D01*
X83245000Y-67885000D02*
X83245000Y-73085000D01*
X78045000Y-70485000D02*
X80645000Y-70485000D01*
X80645000Y-70485000D02*
X80645000Y-67885000D01*
X80645000Y-67885000D02*
X83245000Y-67885000D01*
X78045000Y-69215000D02*
X78045000Y-67885000D01*
X78045000Y-67885000D02*
X79375000Y-67885000D01*
X60422200Y-88148000D02*
X53522200Y-88148000D01*
X60422200Y-83048000D02*
X53522200Y-83048000D01*
X69344000Y-86304000D02*
X69344000Y-87234000D01*
X69344000Y-89464000D02*
X69344000Y-88534000D01*
X69344000Y-89464000D02*
X71504000Y-89464000D01*
X69344000Y-86304000D02*
X70804000Y-86304000D01*
X81570000Y-89695000D02*
X86070000Y-89695000D01*
X86070000Y-89695000D02*
X86070000Y-84295000D01*
X71790000Y-95640000D02*
X72990000Y-95640000D01*
X72990000Y-97400000D02*
X71790000Y-97400000D01*
X71790000Y-99450000D02*
X72990000Y-99450000D01*
X72990000Y-101210000D02*
X71790000Y-101210000D01*
X72990000Y-105020000D02*
X71790000Y-105020000D01*
X71790000Y-103260000D02*
X72990000Y-103260000D01*
X71790000Y-107070000D02*
X72990000Y-107070000D01*
X72990000Y-108830000D02*
X71790000Y-108830000D01*
X74895000Y-89780000D02*
X73695000Y-89780000D01*
X73695000Y-88020000D02*
X74895000Y-88020000D01*
X74895000Y-87875000D02*
X73695000Y-87875000D01*
X73695000Y-86115000D02*
X74895000Y-86115000D01*
X55210000Y-105020000D02*
X54010000Y-105020000D01*
X54010000Y-103260000D02*
X55210000Y-103260000D01*
X55210000Y-99940000D02*
X54010000Y-99940000D01*
X54010000Y-98180000D02*
X55210000Y-98180000D01*
X100956000Y-81188000D02*
X100956000Y-82388000D01*
X99196000Y-82388000D02*
X99196000Y-81188000D01*
X88230000Y-69460000D02*
X87030000Y-69460000D01*
X87030000Y-67700000D02*
X88230000Y-67700000D01*
X88230000Y-74540000D02*
X87030000Y-74540000D01*
X87030000Y-72780000D02*
X88230000Y-72780000D01*
X60036000Y-79112000D02*
X58836000Y-79112000D01*
X58836000Y-77352000D02*
X60036000Y-77352000D01*
X73752000Y-79112000D02*
X72552000Y-79112000D01*
X72552000Y-77352000D02*
X73752000Y-77352000D01*
X53432000Y-79112000D02*
X52232000Y-79112000D01*
X52232000Y-77352000D02*
X53432000Y-77352000D01*
X67656000Y-79112000D02*
X66456000Y-79112000D01*
X66456000Y-77352000D02*
X67656000Y-77352000D01*
X52730000Y-67920000D02*
X52730000Y-67670000D01*
X52730000Y-67670000D02*
X59030000Y-67670000D01*
X59030000Y-67670000D02*
X59030000Y-67920000D01*
X52730000Y-72420000D02*
X52730000Y-69820000D01*
X59030000Y-74320000D02*
X59030000Y-74570000D01*
X59030000Y-74570000D02*
X52730000Y-74570000D01*
X52730000Y-74570000D02*
X52730000Y-74320000D01*
X59030000Y-69820000D02*
X59030000Y-72420000D01*
X66700000Y-67920000D02*
X66700000Y-67670000D01*
X66700000Y-67670000D02*
X73000000Y-67670000D01*
X73000000Y-67670000D02*
X73000000Y-67920000D01*
X66700000Y-72420000D02*
X66700000Y-69820000D01*
X73000000Y-74320000D02*
X73000000Y-74570000D01*
X73000000Y-74570000D02*
X66700000Y-74570000D01*
X66700000Y-74570000D02*
X66700000Y-74320000D01*
X73000000Y-69820000D02*
X73000000Y-72420000D01*
X55108200Y-90032000D02*
X55108200Y-91832000D01*
X58328200Y-91832000D02*
X58328200Y-89382000D01*
D11*
X89339000Y-81719000D02*
X89339000Y-81944000D01*
X96589000Y-81719000D02*
X96589000Y-82044000D01*
X96589000Y-88969000D02*
X96589000Y-88644000D01*
X89339000Y-88969000D02*
X89339000Y-88644000D01*
X89339000Y-81719000D02*
X89664000Y-81719000D01*
X89339000Y-88969000D02*
X89664000Y-88969000D01*
X96589000Y-88969000D02*
X96264000Y-88969000D01*
X96589000Y-81719000D02*
X96264000Y-81719000D01*
X89339000Y-81944000D02*
X87914000Y-81944000D01*
X95185000Y-65795000D02*
X95185000Y-66070000D01*
X102935000Y-65795000D02*
X102935000Y-66150000D01*
X102935000Y-76445000D02*
X102935000Y-76090000D01*
X95185000Y-76445000D02*
X95185000Y-76090000D01*
X95185000Y-65795000D02*
X102935000Y-65795000D01*
X95185000Y-76445000D02*
X102935000Y-76445000D01*
X95185000Y-66070000D02*
X93660000Y-66070000D01*
X106354571Y-90860190D02*
X106402190Y-90717333D01*
X106449810Y-90669714D01*
X106545048Y-90622095D01*
X106687905Y-90622095D01*
X106783143Y-90669714D01*
X106830762Y-90717333D01*
X106878381Y-90812571D01*
X106878381Y-91193524D01*
X105878381Y-91193524D01*
X105878381Y-90860190D01*
X105926000Y-90764952D01*
X105973619Y-90717333D01*
X106068857Y-90669714D01*
X106164095Y-90669714D01*
X106259333Y-90717333D01*
X106306952Y-90764952D01*
X106354571Y-90860190D01*
X106354571Y-91193524D01*
X106592667Y-90241143D02*
X106592667Y-89764952D01*
X106878381Y-90336381D02*
X105878381Y-90003048D01*
X106878381Y-89669714D01*
X105878381Y-89479238D02*
X105878381Y-88907809D01*
X106878381Y-89193524D02*
X105878381Y-89193524D01*
X106973619Y-88812571D02*
X106973619Y-88050666D01*
X106878381Y-87241142D02*
X106402190Y-87574476D01*
X106878381Y-87812571D02*
X105878381Y-87812571D01*
X105878381Y-87431618D01*
X105926000Y-87336380D01*
X105973619Y-87288761D01*
X106068857Y-87241142D01*
X106211714Y-87241142D01*
X106306952Y-87288761D01*
X106354571Y-87336380D01*
X106402190Y-87431618D01*
X106402190Y-87812571D01*
X105878381Y-86955428D02*
X105878381Y-86383999D01*
X106878381Y-86669714D02*
X105878381Y-86669714D01*
X106783143Y-85479237D02*
X106830762Y-85526856D01*
X106878381Y-85669713D01*
X106878381Y-85764951D01*
X106830762Y-85907809D01*
X106735524Y-86003047D01*
X106640286Y-86050666D01*
X106449810Y-86098285D01*
X106306952Y-86098285D01*
X106116476Y-86050666D01*
X106021238Y-86003047D01*
X105926000Y-85907809D01*
X105878381Y-85764951D01*
X105878381Y-85669713D01*
X105926000Y-85526856D01*
X105973619Y-85479237D01*
X106878381Y-84526856D02*
X106878381Y-85098285D01*
X106878381Y-84812571D02*
X105878381Y-84812571D01*
X106021238Y-84907809D01*
X106116476Y-85003047D01*
X106164095Y-85098285D01*
X50303134Y-92178143D02*
X50255515Y-92225762D01*
X50112658Y-92273381D01*
X50017420Y-92273381D01*
X49874562Y-92225762D01*
X49779324Y-92130524D01*
X49731705Y-92035286D01*
X49684086Y-91844810D01*
X49684086Y-91701952D01*
X49731705Y-91511476D01*
X49779324Y-91416238D01*
X49874562Y-91321000D01*
X50017420Y-91273381D01*
X50112658Y-91273381D01*
X50255515Y-91321000D01*
X50303134Y-91368619D01*
X51255515Y-92273381D02*
X50684086Y-92273381D01*
X50969800Y-92273381D02*
X50969800Y-91273381D01*
X50874562Y-91416238D01*
X50779324Y-91511476D01*
X50684086Y-91559095D01*
X61047334Y-92940143D02*
X60999715Y-92987762D01*
X60856858Y-93035381D01*
X60761620Y-93035381D01*
X60618762Y-92987762D01*
X60523524Y-92892524D01*
X60475905Y-92797286D01*
X60428286Y-92606810D01*
X60428286Y-92463952D01*
X60475905Y-92273476D01*
X60523524Y-92178238D01*
X60618762Y-92083000D01*
X60761620Y-92035381D01*
X60856858Y-92035381D01*
X60999715Y-92083000D01*
X61047334Y-92130619D01*
X61428286Y-92130619D02*
X61475905Y-92083000D01*
X61571143Y-92035381D01*
X61809239Y-92035381D01*
X61904477Y-92083000D01*
X61952096Y-92130619D01*
X61999715Y-92225857D01*
X61999715Y-92321095D01*
X61952096Y-92463952D01*
X61380667Y-93035381D01*
X61999715Y-93035381D01*
X83145334Y-79097143D02*
X83097715Y-79144762D01*
X82954858Y-79192381D01*
X82859620Y-79192381D01*
X82716762Y-79144762D01*
X82621524Y-79049524D01*
X82573905Y-78954286D01*
X82526286Y-78763810D01*
X82526286Y-78620952D01*
X82573905Y-78430476D01*
X82621524Y-78335238D01*
X82716762Y-78240000D01*
X82859620Y-78192381D01*
X82954858Y-78192381D01*
X83097715Y-78240000D01*
X83145334Y-78287619D01*
X83478667Y-78192381D02*
X84097715Y-78192381D01*
X83764381Y-78573333D01*
X83907239Y-78573333D01*
X84002477Y-78620952D01*
X84050096Y-78668571D01*
X84097715Y-78763810D01*
X84097715Y-79001905D01*
X84050096Y-79097143D01*
X84002477Y-79144762D01*
X83907239Y-79192381D01*
X83621524Y-79192381D01*
X83526286Y-79144762D01*
X83478667Y-79097143D01*
X80097334Y-83669143D02*
X80049715Y-83716762D01*
X79906858Y-83764381D01*
X79811620Y-83764381D01*
X79668762Y-83716762D01*
X79573524Y-83621524D01*
X79525905Y-83526286D01*
X79478286Y-83335810D01*
X79478286Y-83192952D01*
X79525905Y-83002476D01*
X79573524Y-82907238D01*
X79668762Y-82812000D01*
X79811620Y-82764381D01*
X79906858Y-82764381D01*
X80049715Y-82812000D01*
X80097334Y-82859619D01*
X80954477Y-83097714D02*
X80954477Y-83764381D01*
X80716381Y-82716762D02*
X80478286Y-83431048D01*
X81097334Y-83431048D01*
X80097334Y-91289143D02*
X80049715Y-91336762D01*
X79906858Y-91384381D01*
X79811620Y-91384381D01*
X79668762Y-91336762D01*
X79573524Y-91241524D01*
X79525905Y-91146286D01*
X79478286Y-90955810D01*
X79478286Y-90812952D01*
X79525905Y-90622476D01*
X79573524Y-90527238D01*
X79668762Y-90432000D01*
X79811620Y-90384381D01*
X79906858Y-90384381D01*
X80049715Y-90432000D01*
X80097334Y-90479619D01*
X81002096Y-90384381D02*
X80525905Y-90384381D01*
X80478286Y-90860571D01*
X80525905Y-90812952D01*
X80621143Y-90765333D01*
X80859239Y-90765333D01*
X80954477Y-90812952D01*
X81002096Y-90860571D01*
X81049715Y-90955810D01*
X81049715Y-91193905D01*
X81002096Y-91289143D01*
X80954477Y-91336762D01*
X80859239Y-91384381D01*
X80621143Y-91384381D01*
X80525905Y-91336762D01*
X80478286Y-91289143D01*
X105878334Y-75287143D02*
X105830715Y-75334762D01*
X105687858Y-75382381D01*
X105592620Y-75382381D01*
X105449762Y-75334762D01*
X105354524Y-75239524D01*
X105306905Y-75144286D01*
X105259286Y-74953810D01*
X105259286Y-74810952D01*
X105306905Y-74620476D01*
X105354524Y-74525238D01*
X105449762Y-74430000D01*
X105592620Y-74382381D01*
X105687858Y-74382381D01*
X105830715Y-74430000D01*
X105878334Y-74477619D01*
X106735477Y-74382381D02*
X106545000Y-74382381D01*
X106449762Y-74430000D01*
X106402143Y-74477619D01*
X106306905Y-74620476D01*
X106259286Y-74810952D01*
X106259286Y-75191905D01*
X106306905Y-75287143D01*
X106354524Y-75334762D01*
X106449762Y-75382381D01*
X106640239Y-75382381D01*
X106735477Y-75334762D01*
X106783096Y-75287143D01*
X106830715Y-75191905D01*
X106830715Y-74953810D01*
X106783096Y-74858571D01*
X106735477Y-74810952D01*
X106640239Y-74763333D01*
X106449762Y-74763333D01*
X106354524Y-74810952D01*
X106306905Y-74858571D01*
X106259286Y-74953810D01*
X59967905Y-102742381D02*
X59967905Y-101742381D01*
X60206000Y-101742381D01*
X60348858Y-101790000D01*
X60444096Y-101885238D01*
X60491715Y-101980476D01*
X60539334Y-102170952D01*
X60539334Y-102313810D01*
X60491715Y-102504286D01*
X60444096Y-102599524D01*
X60348858Y-102694762D01*
X60206000Y-102742381D01*
X59967905Y-102742381D01*
X61491715Y-102742381D02*
X60920286Y-102742381D01*
X61206000Y-102742381D02*
X61206000Y-101742381D01*
X61110762Y-101885238D01*
X61015524Y-101980476D01*
X60920286Y-102028095D01*
X59967905Y-97662381D02*
X59967905Y-96662381D01*
X60206000Y-96662381D01*
X60348858Y-96710000D01*
X60444096Y-96805238D01*
X60491715Y-96900476D01*
X60539334Y-97090952D01*
X60539334Y-97233810D01*
X60491715Y-97424286D01*
X60444096Y-97519524D01*
X60348858Y-97614762D01*
X60206000Y-97662381D01*
X59967905Y-97662381D01*
X60920286Y-96757619D02*
X60967905Y-96710000D01*
X61063143Y-96662381D01*
X61301239Y-96662381D01*
X61396477Y-96710000D01*
X61444096Y-96757619D01*
X61491715Y-96852857D01*
X61491715Y-96948095D01*
X61444096Y-97090952D01*
X60872667Y-97662381D01*
X61491715Y-97662381D01*
X85446667Y-93524381D02*
X85446667Y-94238667D01*
X85399047Y-94381524D01*
X85303809Y-94476762D01*
X85160952Y-94524381D01*
X85065714Y-94524381D01*
X86446667Y-94524381D02*
X85875238Y-94524381D01*
X86160952Y-94524381D02*
X86160952Y-93524381D01*
X86065714Y-93667238D01*
X85970476Y-93762476D01*
X85875238Y-93810095D01*
X98726667Y-96182381D02*
X98726667Y-96896667D01*
X98679047Y-97039524D01*
X98583809Y-97134762D01*
X98440952Y-97182381D01*
X98345714Y-97182381D01*
X99155238Y-96277619D02*
X99202857Y-96230000D01*
X99298095Y-96182381D01*
X99536191Y-96182381D01*
X99631429Y-96230000D01*
X99679048Y-96277619D01*
X99726667Y-96372857D01*
X99726667Y-96468095D01*
X99679048Y-96610952D01*
X99107619Y-97182381D01*
X99726667Y-97182381D01*
X78152667Y-66000381D02*
X78152667Y-66714667D01*
X78105047Y-66857524D01*
X78009809Y-66952762D01*
X77866952Y-67000381D01*
X77771714Y-67000381D01*
X78533619Y-66000381D02*
X79152667Y-66000381D01*
X78819333Y-66381333D01*
X78962191Y-66381333D01*
X79057429Y-66428952D01*
X79105048Y-66476571D01*
X79152667Y-66571810D01*
X79152667Y-66809905D01*
X79105048Y-66905143D01*
X79057429Y-66952762D01*
X78962191Y-67000381D01*
X78676476Y-67000381D01*
X78581238Y-66952762D01*
X78533619Y-66905143D01*
X56678534Y-82494381D02*
X56202343Y-82494381D01*
X56202343Y-81494381D01*
X57535677Y-82494381D02*
X56964248Y-82494381D01*
X57249962Y-82494381D02*
X57249962Y-81494381D01*
X57154724Y-81637238D01*
X57059486Y-81732476D01*
X56964248Y-81780095D01*
X70008762Y-85891619D02*
X69913524Y-85844000D01*
X69818286Y-85748762D01*
X69675429Y-85605905D01*
X69580190Y-85558286D01*
X69484952Y-85558286D01*
X69532571Y-85796381D02*
X69437333Y-85748762D01*
X69342095Y-85653524D01*
X69294476Y-85463048D01*
X69294476Y-85129714D01*
X69342095Y-84939238D01*
X69437333Y-84844000D01*
X69532571Y-84796381D01*
X69723048Y-84796381D01*
X69818286Y-84844000D01*
X69913524Y-84939238D01*
X69961143Y-85129714D01*
X69961143Y-85463048D01*
X69913524Y-85653524D01*
X69818286Y-85748762D01*
X69723048Y-85796381D01*
X69532571Y-85796381D01*
X70913524Y-85796381D02*
X70342095Y-85796381D01*
X70627809Y-85796381D02*
X70627809Y-84796381D01*
X70532571Y-84939238D01*
X70437333Y-85034476D01*
X70342095Y-85082095D01*
X80295762Y-87542619D02*
X80200524Y-87495000D01*
X80105286Y-87399762D01*
X79962429Y-87256905D01*
X79867190Y-87209286D01*
X79771952Y-87209286D01*
X79819571Y-87447381D02*
X79724333Y-87399762D01*
X79629095Y-87304524D01*
X79581476Y-87114048D01*
X79581476Y-86780714D01*
X79629095Y-86590238D01*
X79724333Y-86495000D01*
X79819571Y-86447381D01*
X80010048Y-86447381D01*
X80105286Y-86495000D01*
X80200524Y-86590238D01*
X80248143Y-86780714D01*
X80248143Y-87114048D01*
X80200524Y-87304524D01*
X80105286Y-87399762D01*
X80010048Y-87447381D01*
X79819571Y-87447381D01*
X80629095Y-86542619D02*
X80676714Y-86495000D01*
X80771952Y-86447381D01*
X81010048Y-86447381D01*
X81105286Y-86495000D01*
X81152905Y-86542619D01*
X81200524Y-86637857D01*
X81200524Y-86733095D01*
X81152905Y-86875952D01*
X80581476Y-87447381D01*
X81200524Y-87447381D01*
X72223334Y-98672381D02*
X71890000Y-98196190D01*
X71651905Y-98672381D02*
X71651905Y-97672381D01*
X72032858Y-97672381D01*
X72128096Y-97720000D01*
X72175715Y-97767619D01*
X72223334Y-97862857D01*
X72223334Y-98005714D01*
X72175715Y-98100952D01*
X72128096Y-98148571D01*
X72032858Y-98196190D01*
X71651905Y-98196190D01*
X73175715Y-98672381D02*
X72604286Y-98672381D01*
X72890000Y-98672381D02*
X72890000Y-97672381D01*
X72794762Y-97815238D01*
X72699524Y-97910476D01*
X72604286Y-97958095D01*
X72223334Y-102482381D02*
X71890000Y-102006190D01*
X71651905Y-102482381D02*
X71651905Y-101482381D01*
X72032858Y-101482381D01*
X72128096Y-101530000D01*
X72175715Y-101577619D01*
X72223334Y-101672857D01*
X72223334Y-101815714D01*
X72175715Y-101910952D01*
X72128096Y-101958571D01*
X72032858Y-102006190D01*
X71651905Y-102006190D01*
X72604286Y-101577619D02*
X72651905Y-101530000D01*
X72747143Y-101482381D01*
X72985239Y-101482381D01*
X73080477Y-101530000D01*
X73128096Y-101577619D01*
X73175715Y-101672857D01*
X73175715Y-101768095D01*
X73128096Y-101910952D01*
X72556667Y-102482381D01*
X73175715Y-102482381D01*
X72223334Y-106497381D02*
X71890000Y-106021190D01*
X71651905Y-106497381D02*
X71651905Y-105497381D01*
X72032858Y-105497381D01*
X72128096Y-105545000D01*
X72175715Y-105592619D01*
X72223334Y-105687857D01*
X72223334Y-105830714D01*
X72175715Y-105925952D01*
X72128096Y-105973571D01*
X72032858Y-106021190D01*
X71651905Y-106021190D01*
X72556667Y-105497381D02*
X73175715Y-105497381D01*
X72842381Y-105878333D01*
X72985239Y-105878333D01*
X73080477Y-105925952D01*
X73128096Y-105973571D01*
X73175715Y-106068810D01*
X73175715Y-106306905D01*
X73128096Y-106402143D01*
X73080477Y-106449762D01*
X72985239Y-106497381D01*
X72699524Y-106497381D01*
X72604286Y-106449762D01*
X72556667Y-106402143D01*
X72223334Y-110102381D02*
X71890000Y-109626190D01*
X71651905Y-110102381D02*
X71651905Y-109102381D01*
X72032858Y-109102381D01*
X72128096Y-109150000D01*
X72175715Y-109197619D01*
X72223334Y-109292857D01*
X72223334Y-109435714D01*
X72175715Y-109530952D01*
X72128096Y-109578571D01*
X72032858Y-109626190D01*
X71651905Y-109626190D01*
X73080477Y-109435714D02*
X73080477Y-110102381D01*
X72842381Y-109054762D02*
X72604286Y-109769048D01*
X73223334Y-109769048D01*
X74128334Y-91257381D02*
X73795000Y-90781190D01*
X73556905Y-91257381D02*
X73556905Y-90257381D01*
X73937858Y-90257381D01*
X74033096Y-90305000D01*
X74080715Y-90352619D01*
X74128334Y-90447857D01*
X74128334Y-90590714D01*
X74080715Y-90685952D01*
X74033096Y-90733571D01*
X73937858Y-90781190D01*
X73556905Y-90781190D01*
X75033096Y-90257381D02*
X74556905Y-90257381D01*
X74509286Y-90733571D01*
X74556905Y-90685952D01*
X74652143Y-90638333D01*
X74890239Y-90638333D01*
X74985477Y-90685952D01*
X75033096Y-90733571D01*
X75080715Y-90828810D01*
X75080715Y-91066905D01*
X75033096Y-91162143D01*
X74985477Y-91209762D01*
X74890239Y-91257381D01*
X74652143Y-91257381D01*
X74556905Y-91209762D01*
X74509286Y-91162143D01*
X74128334Y-85747381D02*
X73795000Y-85271190D01*
X73556905Y-85747381D02*
X73556905Y-84747381D01*
X73937858Y-84747381D01*
X74033096Y-84795000D01*
X74080715Y-84842619D01*
X74128334Y-84937857D01*
X74128334Y-85080714D01*
X74080715Y-85175952D01*
X74033096Y-85223571D01*
X73937858Y-85271190D01*
X73556905Y-85271190D01*
X74985477Y-84747381D02*
X74795000Y-84747381D01*
X74699762Y-84795000D01*
X74652143Y-84842619D01*
X74556905Y-84985476D01*
X74509286Y-85175952D01*
X74509286Y-85556905D01*
X74556905Y-85652143D01*
X74604524Y-85699762D01*
X74699762Y-85747381D01*
X74890239Y-85747381D01*
X74985477Y-85699762D01*
X75033096Y-85652143D01*
X75080715Y-85556905D01*
X75080715Y-85318810D01*
X75033096Y-85223571D01*
X74985477Y-85175952D01*
X74890239Y-85128333D01*
X74699762Y-85128333D01*
X74604524Y-85175952D01*
X74556905Y-85223571D01*
X74509286Y-85318810D01*
X54443334Y-102892381D02*
X54110000Y-102416190D01*
X53871905Y-102892381D02*
X53871905Y-101892381D01*
X54252858Y-101892381D01*
X54348096Y-101940000D01*
X54395715Y-101987619D01*
X54443334Y-102082857D01*
X54443334Y-102225714D01*
X54395715Y-102320952D01*
X54348096Y-102368571D01*
X54252858Y-102416190D01*
X53871905Y-102416190D01*
X54776667Y-101892381D02*
X55443334Y-101892381D01*
X55014762Y-102892381D01*
X54443334Y-97812381D02*
X54110000Y-97336190D01*
X53871905Y-97812381D02*
X53871905Y-96812381D01*
X54252858Y-96812381D01*
X54348096Y-96860000D01*
X54395715Y-96907619D01*
X54443334Y-97002857D01*
X54443334Y-97145714D01*
X54395715Y-97240952D01*
X54348096Y-97288571D01*
X54252858Y-97336190D01*
X53871905Y-97336190D01*
X55014762Y-97240952D02*
X54919524Y-97193333D01*
X54871905Y-97145714D01*
X54824286Y-97050476D01*
X54824286Y-97002857D01*
X54871905Y-96907619D01*
X54919524Y-96860000D01*
X55014762Y-96812381D01*
X55205239Y-96812381D01*
X55300477Y-96860000D01*
X55348096Y-96907619D01*
X55395715Y-97002857D01*
X55395715Y-97050476D01*
X55348096Y-97145714D01*
X55300477Y-97193333D01*
X55205239Y-97240952D01*
X55014762Y-97240952D01*
X54919524Y-97288571D01*
X54871905Y-97336190D01*
X54824286Y-97431429D01*
X54824286Y-97621905D01*
X54871905Y-97717143D01*
X54919524Y-97764762D01*
X55014762Y-97812381D01*
X55205239Y-97812381D01*
X55300477Y-97764762D01*
X55348096Y-97717143D01*
X55395715Y-97621905D01*
X55395715Y-97431429D01*
X55348096Y-97336190D01*
X55300477Y-97288571D01*
X55205239Y-97240952D01*
X101687334Y-81986381D02*
X101354000Y-81510190D01*
X101115905Y-81986381D02*
X101115905Y-80986381D01*
X101496858Y-80986381D01*
X101592096Y-81034000D01*
X101639715Y-81081619D01*
X101687334Y-81176857D01*
X101687334Y-81319714D01*
X101639715Y-81414952D01*
X101592096Y-81462571D01*
X101496858Y-81510190D01*
X101115905Y-81510190D01*
X102163524Y-81986381D02*
X102354000Y-81986381D01*
X102449239Y-81938762D01*
X102496858Y-81891143D01*
X102592096Y-81748286D01*
X102639715Y-81557810D01*
X102639715Y-81176857D01*
X102592096Y-81081619D01*
X102544477Y-81034000D01*
X102449239Y-80986381D01*
X102258762Y-80986381D01*
X102163524Y-81034000D01*
X102115905Y-81081619D01*
X102068286Y-81176857D01*
X102068286Y-81414952D01*
X102115905Y-81510190D01*
X102163524Y-81557810D01*
X102258762Y-81605429D01*
X102449239Y-81605429D01*
X102544477Y-81557810D01*
X102592096Y-81510190D01*
X102639715Y-81414952D01*
X86987143Y-67332381D02*
X86653809Y-66856190D01*
X86415714Y-67332381D02*
X86415714Y-66332381D01*
X86796667Y-66332381D01*
X86891905Y-66380000D01*
X86939524Y-66427619D01*
X86987143Y-66522857D01*
X86987143Y-66665714D01*
X86939524Y-66760952D01*
X86891905Y-66808571D01*
X86796667Y-66856190D01*
X86415714Y-66856190D01*
X87939524Y-67332381D02*
X87368095Y-67332381D01*
X87653809Y-67332381D02*
X87653809Y-66332381D01*
X87558571Y-66475238D01*
X87463333Y-66570476D01*
X87368095Y-66618095D01*
X88558571Y-66332381D02*
X88653810Y-66332381D01*
X88749048Y-66380000D01*
X88796667Y-66427619D01*
X88844286Y-66522857D01*
X88891905Y-66713333D01*
X88891905Y-66951429D01*
X88844286Y-67141905D01*
X88796667Y-67237143D01*
X88749048Y-67284762D01*
X88653810Y-67332381D01*
X88558571Y-67332381D01*
X88463333Y-67284762D01*
X88415714Y-67237143D01*
X88368095Y-67141905D01*
X88320476Y-66951429D01*
X88320476Y-66713333D01*
X88368095Y-66522857D01*
X88415714Y-66427619D01*
X88463333Y-66380000D01*
X88558571Y-66332381D01*
X86987143Y-72412381D02*
X86653809Y-71936190D01*
X86415714Y-72412381D02*
X86415714Y-71412381D01*
X86796667Y-71412381D01*
X86891905Y-71460000D01*
X86939524Y-71507619D01*
X86987143Y-71602857D01*
X86987143Y-71745714D01*
X86939524Y-71840952D01*
X86891905Y-71888571D01*
X86796667Y-71936190D01*
X86415714Y-71936190D01*
X87939524Y-72412381D02*
X87368095Y-72412381D01*
X87653809Y-72412381D02*
X87653809Y-71412381D01*
X87558571Y-71555238D01*
X87463333Y-71650476D01*
X87368095Y-71698095D01*
X88891905Y-72412381D02*
X88320476Y-72412381D01*
X88606190Y-72412381D02*
X88606190Y-71412381D01*
X88510952Y-71555238D01*
X88415714Y-71650476D01*
X88320476Y-71698095D01*
X58793143Y-76984381D02*
X58459809Y-76508190D01*
X58221714Y-76984381D02*
X58221714Y-75984381D01*
X58602667Y-75984381D01*
X58697905Y-76032000D01*
X58745524Y-76079619D01*
X58793143Y-76174857D01*
X58793143Y-76317714D01*
X58745524Y-76412952D01*
X58697905Y-76460571D01*
X58602667Y-76508190D01*
X58221714Y-76508190D01*
X59745524Y-76984381D02*
X59174095Y-76984381D01*
X59459809Y-76984381D02*
X59459809Y-75984381D01*
X59364571Y-76127238D01*
X59269333Y-76222476D01*
X59174095Y-76270095D01*
X60126476Y-76079619D02*
X60174095Y-76032000D01*
X60269333Y-75984381D01*
X60507429Y-75984381D01*
X60602667Y-76032000D01*
X60650286Y-76079619D01*
X60697905Y-76174857D01*
X60697905Y-76270095D01*
X60650286Y-76412952D01*
X60078857Y-76984381D01*
X60697905Y-76984381D01*
X72509143Y-76984381D02*
X72175809Y-76508190D01*
X71937714Y-76984381D02*
X71937714Y-75984381D01*
X72318667Y-75984381D01*
X72413905Y-76032000D01*
X72461524Y-76079619D01*
X72509143Y-76174857D01*
X72509143Y-76317714D01*
X72461524Y-76412952D01*
X72413905Y-76460571D01*
X72318667Y-76508190D01*
X71937714Y-76508190D01*
X73461524Y-76984381D02*
X72890095Y-76984381D01*
X73175809Y-76984381D02*
X73175809Y-75984381D01*
X73080571Y-76127238D01*
X72985333Y-76222476D01*
X72890095Y-76270095D01*
X73794857Y-75984381D02*
X74413905Y-75984381D01*
X74080571Y-76365333D01*
X74223429Y-76365333D01*
X74318667Y-76412952D01*
X74366286Y-76460571D01*
X74413905Y-76555810D01*
X74413905Y-76793905D01*
X74366286Y-76889143D01*
X74318667Y-76936762D01*
X74223429Y-76984381D01*
X73937714Y-76984381D01*
X73842476Y-76936762D01*
X73794857Y-76889143D01*
X52189143Y-76984381D02*
X51855809Y-76508190D01*
X51617714Y-76984381D02*
X51617714Y-75984381D01*
X51998667Y-75984381D01*
X52093905Y-76032000D01*
X52141524Y-76079619D01*
X52189143Y-76174857D01*
X52189143Y-76317714D01*
X52141524Y-76412952D01*
X52093905Y-76460571D01*
X51998667Y-76508190D01*
X51617714Y-76508190D01*
X53141524Y-76984381D02*
X52570095Y-76984381D01*
X52855809Y-76984381D02*
X52855809Y-75984381D01*
X52760571Y-76127238D01*
X52665333Y-76222476D01*
X52570095Y-76270095D01*
X53998667Y-76317714D02*
X53998667Y-76984381D01*
X53760571Y-75936762D02*
X53522476Y-76651048D01*
X54141524Y-76651048D01*
X66413143Y-76984381D02*
X66079809Y-76508190D01*
X65841714Y-76984381D02*
X65841714Y-75984381D01*
X66222667Y-75984381D01*
X66317905Y-76032000D01*
X66365524Y-76079619D01*
X66413143Y-76174857D01*
X66413143Y-76317714D01*
X66365524Y-76412952D01*
X66317905Y-76460571D01*
X66222667Y-76508190D01*
X65841714Y-76508190D01*
X67365524Y-76984381D02*
X66794095Y-76984381D01*
X67079809Y-76984381D02*
X67079809Y-75984381D01*
X66984571Y-76127238D01*
X66889333Y-76222476D01*
X66794095Y-76270095D01*
X68270286Y-75984381D02*
X67794095Y-75984381D01*
X67746476Y-76460571D01*
X67794095Y-76412952D01*
X67889333Y-76365333D01*
X68127429Y-76365333D01*
X68222667Y-76412952D01*
X68270286Y-76460571D01*
X68317905Y-76555810D01*
X68317905Y-76793905D01*
X68270286Y-76889143D01*
X68222667Y-76936762D01*
X68127429Y-76984381D01*
X67889333Y-76984381D01*
X67794095Y-76936762D01*
X67746476Y-76889143D01*
X54546667Y-67024762D02*
X54689524Y-67072381D01*
X54927620Y-67072381D01*
X55022858Y-67024762D01*
X55070477Y-66977143D01*
X55118096Y-66881905D01*
X55118096Y-66786667D01*
X55070477Y-66691429D01*
X55022858Y-66643810D01*
X54927620Y-66596190D01*
X54737143Y-66548571D01*
X54641905Y-66500952D01*
X54594286Y-66453333D01*
X54546667Y-66358095D01*
X54546667Y-66262857D01*
X54594286Y-66167619D01*
X54641905Y-66120000D01*
X54737143Y-66072381D01*
X54975239Y-66072381D01*
X55118096Y-66120000D01*
X55451429Y-66072381D02*
X55689524Y-67072381D01*
X55880001Y-66358095D01*
X56070477Y-67072381D01*
X56308572Y-66072381D01*
X57213334Y-67072381D02*
X56641905Y-67072381D01*
X56927619Y-67072381D02*
X56927619Y-66072381D01*
X56832381Y-66215238D01*
X56737143Y-66310476D01*
X56641905Y-66358095D01*
X68516667Y-67024762D02*
X68659524Y-67072381D01*
X68897620Y-67072381D01*
X68992858Y-67024762D01*
X69040477Y-66977143D01*
X69088096Y-66881905D01*
X69088096Y-66786667D01*
X69040477Y-66691429D01*
X68992858Y-66643810D01*
X68897620Y-66596190D01*
X68707143Y-66548571D01*
X68611905Y-66500952D01*
X68564286Y-66453333D01*
X68516667Y-66358095D01*
X68516667Y-66262857D01*
X68564286Y-66167619D01*
X68611905Y-66120000D01*
X68707143Y-66072381D01*
X68945239Y-66072381D01*
X69088096Y-66120000D01*
X69421429Y-66072381D02*
X69659524Y-67072381D01*
X69850001Y-66358095D01*
X70040477Y-67072381D01*
X70278572Y-66072381D01*
X70611905Y-66167619D02*
X70659524Y-66120000D01*
X70754762Y-66072381D01*
X70992858Y-66072381D01*
X71088096Y-66120000D01*
X71135715Y-66167619D01*
X71183334Y-66262857D01*
X71183334Y-66358095D01*
X71135715Y-66500952D01*
X70564286Y-67072381D01*
X71183334Y-67072381D01*
X56083295Y-93686381D02*
X56083295Y-94495905D01*
X56130914Y-94591143D01*
X56178533Y-94638762D01*
X56273771Y-94686381D01*
X56464248Y-94686381D01*
X56559486Y-94638762D01*
X56607105Y-94591143D01*
X56654724Y-94495905D01*
X56654724Y-93686381D01*
X57654724Y-94686381D02*
X57083295Y-94686381D01*
X57369009Y-94686381D02*
X57369009Y-93686381D01*
X57273771Y-93829238D01*
X57178533Y-93924476D01*
X57083295Y-93972095D01*
X92202095Y-78746381D02*
X92202095Y-79555905D01*
X92249714Y-79651143D01*
X92297333Y-79698762D01*
X92392571Y-79746381D01*
X92583048Y-79746381D01*
X92678286Y-79698762D01*
X92725905Y-79651143D01*
X92773524Y-79555905D01*
X92773524Y-78746381D01*
X93202095Y-78841619D02*
X93249714Y-78794000D01*
X93344952Y-78746381D01*
X93583048Y-78746381D01*
X93678286Y-78794000D01*
X93725905Y-78841619D01*
X93773524Y-78936857D01*
X93773524Y-79032095D01*
X93725905Y-79174952D01*
X93154476Y-79746381D01*
X93773524Y-79746381D01*
X98298095Y-64322381D02*
X98298095Y-65131905D01*
X98345714Y-65227143D01*
X98393333Y-65274762D01*
X98488571Y-65322381D01*
X98679048Y-65322381D01*
X98774286Y-65274762D01*
X98821905Y-65227143D01*
X98869524Y-65131905D01*
X98869524Y-64322381D01*
X99250476Y-64322381D02*
X99869524Y-64322381D01*
X99536190Y-64703333D01*
X99679048Y-64703333D01*
X99774286Y-64750952D01*
X99821905Y-64798571D01*
X99869524Y-64893810D01*
X99869524Y-65131905D01*
X99821905Y-65227143D01*
X99774286Y-65274762D01*
X99679048Y-65322381D01*
X99393333Y-65322381D01*
X99298095Y-65274762D01*
X99250476Y-65227143D01*
M02*
