G04 #@! TF.FileFunction,Legend,Bot*
%FSLAX46Y46*%
G04 Gerber Fmt 4.6, Leading zero omitted, Abs format (unit mm)*
G04 Created by KiCad (PCBNEW 4.0.7) date 01/15/18 20:31:51*
%MOMM*%
%LPD*%
G01*
G04 APERTURE LIST*
%ADD10C,0.100000*%
%ADD11C,0.300000*%
%ADD12C,0.120000*%
%ADD13C,0.150000*%
G04 APERTURE END LIST*
D10*
D11*
X118282171Y-108628571D02*
X118996457Y-108628571D01*
X118996457Y-107128571D01*
X117210743Y-108557143D02*
X117353600Y-108628571D01*
X117639314Y-108628571D01*
X117782171Y-108557143D01*
X117853600Y-108414286D01*
X117853600Y-107842857D01*
X117782171Y-107700000D01*
X117639314Y-107628571D01*
X117353600Y-107628571D01*
X117210743Y-107700000D01*
X117139314Y-107842857D01*
X117139314Y-107985714D01*
X117853600Y-108128571D01*
X116282171Y-108628571D02*
X116425029Y-108557143D01*
X116496457Y-108485714D01*
X116567886Y-108342857D01*
X116567886Y-107914286D01*
X116496457Y-107771429D01*
X116425029Y-107700000D01*
X116282171Y-107628571D01*
X116067886Y-107628571D01*
X115925029Y-107700000D01*
X115853600Y-107771429D01*
X115782171Y-107914286D01*
X115782171Y-108342857D01*
X115853600Y-108485714D01*
X115925029Y-108557143D01*
X116067886Y-108628571D01*
X116282171Y-108628571D01*
X115353600Y-107628571D02*
X114782171Y-107628571D01*
X115139314Y-107128571D02*
X115139314Y-108414286D01*
X115067886Y-108557143D01*
X114925028Y-108628571D01*
X114782171Y-108628571D01*
X114282171Y-108628571D02*
X114282171Y-107628571D01*
X114282171Y-107914286D02*
X114210743Y-107771429D01*
X114139314Y-107700000D01*
X113996457Y-107628571D01*
X113853600Y-107628571D01*
X113353600Y-108628571D02*
X113353600Y-107628571D01*
X113353600Y-107128571D02*
X113425029Y-107200000D01*
X113353600Y-107271429D01*
X113282172Y-107200000D01*
X113353600Y-107128571D01*
X113353600Y-107271429D01*
X112639314Y-108628571D02*
X112639314Y-107628571D01*
X112639314Y-107771429D02*
X112567886Y-107700000D01*
X112425028Y-107628571D01*
X112210743Y-107628571D01*
X112067886Y-107700000D01*
X111996457Y-107842857D01*
X111996457Y-108628571D01*
X111996457Y-107842857D02*
X111925028Y-107700000D01*
X111782171Y-107628571D01*
X111567886Y-107628571D01*
X111425028Y-107700000D01*
X111353600Y-107842857D01*
X111353600Y-108628571D01*
X109639314Y-107128571D02*
X108639314Y-107128571D01*
X109639314Y-108628571D01*
X108639314Y-108628571D01*
X107425029Y-107628571D02*
X107425029Y-108628571D01*
X108067886Y-107628571D02*
X108067886Y-108414286D01*
X107996458Y-108557143D01*
X107853600Y-108628571D01*
X107639315Y-108628571D01*
X107496458Y-108557143D01*
X107425029Y-108485714D01*
X106496457Y-108628571D02*
X106639315Y-108557143D01*
X106710743Y-108414286D01*
X106710743Y-107128571D01*
X106139315Y-107628571D02*
X105567886Y-107628571D01*
X105925029Y-108628571D02*
X105925029Y-107342857D01*
X105853601Y-107200000D01*
X105710743Y-107128571D01*
X105567886Y-107128571D01*
X105067886Y-108628571D02*
X105067886Y-107628571D01*
X105067886Y-107128571D02*
X105139315Y-107200000D01*
X105067886Y-107271429D01*
X104996458Y-107200000D01*
X105067886Y-107128571D01*
X105067886Y-107271429D01*
X103710743Y-107628571D02*
X103710743Y-108628571D01*
X104353600Y-107628571D02*
X104353600Y-108414286D01*
X104282172Y-108557143D01*
X104139314Y-108628571D01*
X103925029Y-108628571D01*
X103782172Y-108557143D01*
X103710743Y-108485714D01*
D12*
X116794000Y-75484000D02*
X116794000Y-100284000D01*
X63594000Y-75484000D02*
X116794000Y-75484000D01*
X63594000Y-100284000D02*
X63594000Y-75484000D01*
X116794000Y-100284000D02*
X63594000Y-100284000D01*
X80264000Y-78994000D02*
X80264000Y-84074000D01*
X80264000Y-84074000D02*
X98044000Y-84074000D01*
X98044000Y-84074000D02*
X98044000Y-82804000D01*
X98044000Y-82804000D02*
X99314000Y-82804000D01*
X99314000Y-82804000D02*
X99314000Y-80264000D01*
X99314000Y-80264000D02*
X98044000Y-80264000D01*
X98044000Y-80264000D02*
X98044000Y-78994000D01*
X98044000Y-78994000D02*
X80264000Y-78994000D01*
X99314000Y-95504000D02*
X99314000Y-91694000D01*
X99314000Y-91694000D02*
X81534000Y-91694000D01*
X81534000Y-91694000D02*
X81534000Y-92964000D01*
X81534000Y-92964000D02*
X80264000Y-92964000D01*
X80264000Y-92964000D02*
X80264000Y-95504000D01*
X80264000Y-95504000D02*
X81534000Y-95504000D01*
X81534000Y-95504000D02*
X81534000Y-96774000D01*
X81534000Y-96774000D02*
X99314000Y-96774000D01*
X99314000Y-96774000D02*
X99314000Y-95504000D01*
X65024000Y-88138000D02*
X87884000Y-88138000D01*
X87884000Y-88138000D02*
X87884000Y-87630000D01*
X87884000Y-87630000D02*
X65024000Y-87630000D01*
X114554000Y-88138000D02*
X91694000Y-88138000D01*
X91694000Y-88138000D02*
X91694000Y-87630000D01*
X91694000Y-87630000D02*
X114554000Y-87630000D01*
X80264000Y-77724000D02*
X80264000Y-76454000D01*
X80264000Y-76454000D02*
X99314000Y-76454000D01*
X99314000Y-76454000D02*
X99314000Y-77724000D01*
X112014000Y-98044000D02*
X99314000Y-98044000D01*
X99314000Y-98044000D02*
X99314000Y-99314000D01*
X99314000Y-99314000D02*
X80264000Y-99314000D01*
X80264000Y-99314000D02*
X80264000Y-98044000D01*
X112014000Y-77724000D02*
X99314000Y-77724000D01*
X67564000Y-98044000D02*
X80264000Y-98044000D01*
X67564000Y-98044000D02*
X67564000Y-99314000D01*
X67564000Y-99314000D02*
X65024000Y-99314000D01*
X65024000Y-99314000D02*
X65024000Y-76454000D01*
X65024000Y-76454000D02*
X67564000Y-76454000D01*
X67564000Y-76454000D02*
X67564000Y-77724000D01*
X67564000Y-77724000D02*
X80264000Y-77724000D01*
X114554000Y-99314000D02*
X112014000Y-99314000D01*
X112014000Y-99314000D02*
X112014000Y-98044000D01*
X114554000Y-99314000D02*
X114554000Y-76454000D01*
X114554000Y-76454000D02*
X112014000Y-76454000D01*
X112014000Y-76454000D02*
X112014000Y-77724000D01*
D13*
X74651809Y-94162571D02*
X74508952Y-94210190D01*
X74461333Y-94257810D01*
X74413714Y-94353048D01*
X74413714Y-94495905D01*
X74461333Y-94591143D01*
X74508952Y-94638762D01*
X74604190Y-94686381D01*
X74985143Y-94686381D01*
X74985143Y-93686381D01*
X74651809Y-93686381D01*
X74556571Y-93734000D01*
X74508952Y-93781619D01*
X74461333Y-93876857D01*
X74461333Y-93972095D01*
X74508952Y-94067333D01*
X74556571Y-94114952D01*
X74651809Y-94162571D01*
X74985143Y-94162571D01*
X74032762Y-94400667D02*
X73556571Y-94400667D01*
X74128000Y-94686381D02*
X73794667Y-93686381D01*
X73461333Y-94686381D01*
X73270857Y-93686381D02*
X72699428Y-93686381D01*
X72985143Y-94686381D02*
X72985143Y-93686381D01*
X72604190Y-94781619D02*
X71842285Y-94781619D01*
X71747047Y-93686381D02*
X71413714Y-94686381D01*
X71080380Y-93686381D01*
X70175618Y-94591143D02*
X70223237Y-94638762D01*
X70366094Y-94686381D01*
X70461332Y-94686381D01*
X70604190Y-94638762D01*
X70699428Y-94543524D01*
X70747047Y-94448286D01*
X70794666Y-94257810D01*
X70794666Y-94114952D01*
X70747047Y-93924476D01*
X70699428Y-93829238D01*
X70604190Y-93734000D01*
X70461332Y-93686381D01*
X70366094Y-93686381D01*
X70223237Y-93734000D01*
X70175618Y-93781619D01*
X69175618Y-94591143D02*
X69223237Y-94638762D01*
X69366094Y-94686381D01*
X69461332Y-94686381D01*
X69604190Y-94638762D01*
X69699428Y-94543524D01*
X69747047Y-94448286D01*
X69794666Y-94257810D01*
X69794666Y-94114952D01*
X69747047Y-93924476D01*
X69699428Y-93829238D01*
X69604190Y-93734000D01*
X69461332Y-93686381D01*
X69366094Y-93686381D01*
X69223237Y-93734000D01*
X69175618Y-93781619D01*
X68223237Y-94686381D02*
X68794666Y-94686381D01*
X68508952Y-94686381D02*
X68508952Y-93686381D01*
X68604190Y-93829238D01*
X68699428Y-93924476D01*
X68794666Y-93972095D01*
X101155428Y-94341143D02*
X100012571Y-94341143D01*
X79565428Y-94341143D02*
X78422571Y-94341143D01*
X78994000Y-94912571D02*
X78994000Y-93769714D01*
X101155428Y-81641143D02*
X100012571Y-81641143D01*
X100584000Y-82212571D02*
X100584000Y-81069714D01*
X79565428Y-81641143D02*
X78422571Y-81641143D01*
X63055428Y-94341143D02*
X61912571Y-94341143D01*
X62484000Y-94912571D02*
X62484000Y-93769714D01*
X63055428Y-81641143D02*
X61912571Y-81641143D01*
M02*
