M48
;DRILL file {KiCad 4.0.7} date 01/15/18 20:32:20
;FORMAT={-:-/ absolute / inch / decimal}
FMAT,2
INCH,TZ
T1C0.016
T2C0.039
T3C0.040
%
G90
G05
M72
T1
X2.14Y-3.5
X2.15Y-3.62
X2.2Y-2.86
X2.2Y-3.
X2.215Y-3.735
X2.69Y-3.705
X2.735Y-3.8
X2.76Y-2.86
X2.76Y-3.025
X2.82Y-4.34
X3.04Y-3.68
X3.04Y-3.78
X3.05Y-3.3
X3.14Y-2.94
X3.18Y-3.68
X3.28Y-4.14
X3.35Y-2.65
X3.35Y-2.95
X3.36Y-3.1
X3.375Y-4.28
X3.56Y-3.64
X3.61Y-3.33
X3.64Y-3.6
X3.66Y-3.1
X3.7Y-3.33
X3.7Y-3.41
X3.7Y-3.64
X3.7Y-4.36
X3.72Y-4.24
X3.74Y-3.76
X3.76Y-4.32
X3.78Y-3.98
X3.78Y-4.24
X3.8Y-3.1
X3.82Y-3.8
X3.9Y-2.93
X3.91Y-3.42
X3.94Y-3.35
X3.94Y-3.8
X3.96Y-3.66
X4.04Y-3.74
X4.07Y-3.04
T2
X3.125Y-2.725
X3.125Y-2.825
X3.225Y-2.725
X3.225Y-2.825
X3.85Y-3.9
X3.85Y-4.
X3.85Y-4.1
X3.95Y-3.9
X3.95Y-4.
X3.95Y-4.1
T3
X2.61Y-3.21
X2.61Y-3.71
T0
M30
