G04 #@! TF.FileFunction,Paste,Top*
%FSLAX46Y46*%
G04 Gerber Fmt 4.6, Leading zero omitted, Abs format (unit mm)*
G04 Created by KiCad (PCBNEW 4.0.7) date 02/28/18 21:52:48*
%MOMM*%
%LPD*%
G01*
G04 APERTURE LIST*
%ADD10C,0.100000*%
%ADD11R,3.510000X2.540000*%
%ADD12R,0.800000X0.750000*%
%ADD13R,1.000000X1.250000*%
%ADD14R,1.250000X1.000000*%
%ADD15R,1.500000X1.500000*%
%ADD16R,1.750000X0.700000*%
%ADD17R,1.500000X1.300000*%
%ADD18R,1.500000X0.800000*%
%ADD19R,1.000000X1.450000*%
%ADD20R,1.400000X0.800000*%
%ADD21R,1.550000X1.000000*%
%ADD22R,4.200000X1.500000*%
%ADD23R,0.900000X0.800000*%
%ADD24R,1.300000X0.700000*%
%ADD25R,0.700000X1.300000*%
%ADD26R,0.500000X0.800000*%
%ADD27R,0.400000X0.800000*%
%ADD28R,1.550000X1.300000*%
%ADD29R,1.060000X0.650000*%
%ADD30R,1.600000X0.550000*%
%ADD31R,0.550000X1.600000*%
%ADD32R,1.550000X0.600000*%
%ADD33R,1.000000X2.510000*%
%ADD34R,1.200000X1.400000*%
G04 APERTURE END LIST*
D10*
D11*
X158343600Y-85091200D03*
X158343600Y-114451200D03*
D12*
X143904400Y-84988400D03*
X142404400Y-84988400D03*
X143853600Y-91643200D03*
X142353600Y-91643200D03*
X143853600Y-90220800D03*
X142353600Y-90220800D03*
D13*
X131238500Y-98488500D03*
X129238500Y-98488500D03*
X129175000Y-104775000D03*
X131175000Y-104775000D03*
D14*
X139801600Y-89849200D03*
X139801600Y-87849200D03*
D15*
X126414800Y-114503200D03*
X123114800Y-114503200D03*
X126414800Y-111861600D03*
X123114800Y-111861600D03*
D16*
X113933000Y-98044000D03*
D17*
X114058000Y-96844000D03*
D18*
X121658000Y-96594000D03*
D19*
X123158000Y-96919000D03*
D20*
X122308000Y-108544000D03*
D16*
X113933000Y-99144000D03*
X113933000Y-100244000D03*
X113933000Y-101344000D03*
X113933000Y-102444000D03*
X113933000Y-103544000D03*
X113933000Y-104644000D03*
X113933000Y-105744000D03*
D15*
X114058000Y-108194000D03*
D21*
X124733000Y-108144000D03*
D22*
X147421600Y-89988800D03*
X147421600Y-86388800D03*
D23*
X114690400Y-112608400D03*
X114690400Y-110708400D03*
X112690400Y-111658400D03*
D24*
X116484400Y-110810000D03*
X116484400Y-112710000D03*
D25*
X112892800Y-114503200D03*
X114792800Y-114503200D03*
X118963400Y-114503200D03*
X120863400Y-114503200D03*
X118963400Y-111861600D03*
X120863400Y-111861600D03*
X135003500Y-95250000D03*
X136903500Y-95250000D03*
X116207500Y-93154500D03*
X118107500Y-93154500D03*
X127002500Y-93154500D03*
X128902500Y-93154500D03*
X112334000Y-93154500D03*
X114234000Y-93154500D03*
X123319500Y-93154500D03*
X125219500Y-93154500D03*
D26*
X129876400Y-106897600D03*
D27*
X128276400Y-106897600D03*
X129076400Y-106897600D03*
D26*
X127476400Y-106897600D03*
D27*
X129076400Y-108697600D03*
D26*
X129876400Y-108697600D03*
D27*
X128276400Y-108697600D03*
D26*
X127476400Y-108697600D03*
X138755500Y-95324500D03*
X139755500Y-95324500D03*
X139755500Y-93524500D03*
X138755500Y-93524500D03*
D28*
X119240200Y-90489600D03*
X111290200Y-90489600D03*
X119240200Y-85989600D03*
X111290200Y-85989600D03*
X129755800Y-90489600D03*
X121805800Y-90489600D03*
X129755800Y-85989600D03*
X121805800Y-85989600D03*
D29*
X143746400Y-88478400D03*
X143746400Y-87528400D03*
X143746400Y-86578400D03*
X141546400Y-86578400D03*
X141546400Y-88478400D03*
D30*
X133735500Y-98800000D03*
X133735500Y-99600000D03*
X133735500Y-100400000D03*
X133735500Y-101200000D03*
X133735500Y-102000000D03*
X133735500Y-102800000D03*
X133735500Y-103600000D03*
X133735500Y-104400000D03*
D31*
X135185500Y-105850000D03*
X135985500Y-105850000D03*
X136785500Y-105850000D03*
X137585500Y-105850000D03*
X138385500Y-105850000D03*
X139185500Y-105850000D03*
X139985500Y-105850000D03*
X140785500Y-105850000D03*
D30*
X142235500Y-104400000D03*
X142235500Y-103600000D03*
X142235500Y-102800000D03*
X142235500Y-102000000D03*
X142235500Y-101200000D03*
X142235500Y-100400000D03*
X142235500Y-99600000D03*
X142235500Y-98800000D03*
D31*
X140785500Y-97350000D03*
X139985500Y-97350000D03*
X139185500Y-97350000D03*
X138385500Y-97350000D03*
X137585500Y-97350000D03*
X136785500Y-97350000D03*
X135985500Y-97350000D03*
X135185500Y-97350000D03*
D32*
X132275600Y-86690200D03*
X132275600Y-87960200D03*
X132275600Y-89230200D03*
X132275600Y-90500200D03*
X137675600Y-90500200D03*
X137675600Y-89230200D03*
X137675600Y-87960200D03*
X137675600Y-86690200D03*
D33*
X131445000Y-114659600D03*
X136525000Y-114659600D03*
X141605000Y-114659600D03*
X133985000Y-111349600D03*
X139065000Y-111349600D03*
D14*
X144399000Y-104537000D03*
X144399000Y-106537000D03*
D34*
X129375800Y-100525400D03*
X129375800Y-102725400D03*
X131075800Y-102725400D03*
X131075800Y-100525400D03*
M02*
