G04 #@! TF.FileFunction,Copper,L2,Bot,Signal*
%FSLAX46Y46*%
G04 Gerber Fmt 4.6, Leading zero omitted, Abs format (unit mm)*
G04 Created by KiCad (PCBNEW 4.0.7) date 01/15/18 20:31:51*
%MOMM*%
%LPD*%
G01*
G04 APERTURE LIST*
%ADD10C,0.100000*%
%ADD11R,2.000000X2.000000*%
%ADD12C,2.000000*%
%ADD13R,1.700000X1.700000*%
%ADD14O,1.700000X1.700000*%
%ADD15C,0.600000*%
%ADD16C,0.250000*%
G04 APERTURE END LIST*
D10*
D11*
X66294000Y-94234000D03*
D12*
X66294000Y-81534000D03*
D13*
X97790000Y-99060000D03*
D14*
X100330000Y-99060000D03*
X97790000Y-101600000D03*
X100330000Y-101600000D03*
X97790000Y-104140000D03*
X100330000Y-104140000D03*
D13*
X79375000Y-69215000D03*
D14*
X81915000Y-69215000D03*
X79375000Y-71755000D03*
X81915000Y-71755000D03*
D15*
X77470000Y-83820000D03*
X99060000Y-74422000D03*
X103378000Y-77216000D03*
X93980000Y-84582000D03*
X91694000Y-84582000D03*
X77216000Y-93472000D03*
X77216000Y-96012000D03*
X102616000Y-94996000D03*
X100584000Y-92964000D03*
X79756000Y-74676000D03*
X68326000Y-94107000D03*
X69469000Y-96520000D03*
X85344000Y-78740000D03*
X100076000Y-85090000D03*
X99314000Y-86868000D03*
X71628000Y-110236000D03*
X85725000Y-108712000D03*
X85090000Y-67310000D03*
X85090000Y-74930000D03*
X80772000Y-93472000D03*
X83312000Y-105156000D03*
X94488000Y-107696000D03*
X93980000Y-110744000D03*
X97028000Y-96520000D03*
X96012000Y-101092000D03*
X96012000Y-107696000D03*
X95504000Y-109728000D03*
X93980000Y-92456000D03*
X93980000Y-86614000D03*
X94996000Y-95504000D03*
X100076000Y-96520000D03*
X92964000Y-78740000D03*
X96520000Y-78740000D03*
X92456000Y-91440000D03*
X90424000Y-92456000D03*
X54356000Y-88900000D03*
X54610000Y-91948000D03*
X56261000Y-94869000D03*
X55880000Y-76200000D03*
X55880000Y-72644000D03*
X70104000Y-76835000D03*
X70104000Y-72644000D03*
D16*
X91694000Y-84582000D02*
X90932000Y-83820000D01*
X90932000Y-83820000D02*
X77470000Y-83820000D01*
X103378000Y-77216000D02*
X101854000Y-77216000D01*
X99060000Y-74422000D02*
X101854000Y-77216000D01*
X91694000Y-84582000D02*
X93980000Y-84582000D01*
X77216000Y-93472000D02*
X77216000Y-96012000D01*
X102616000Y-94996000D02*
X100584000Y-92964000D01*
X81915000Y-71755000D02*
X81915000Y-73025000D01*
X80264000Y-74676000D02*
X79756000Y-74676000D01*
X81915000Y-73025000D02*
X80264000Y-74676000D01*
X68326000Y-95377000D02*
X68326000Y-94107000D01*
X69469000Y-96520000D02*
X68326000Y-95377000D01*
X84455000Y-74295000D02*
X84455000Y-77851000D01*
X84455000Y-77851000D02*
X85344000Y-78740000D01*
X100076000Y-86106000D02*
X100076000Y-85090000D01*
X99314000Y-86868000D02*
X100076000Y-86106000D01*
X84328000Y-110236000D02*
X71628000Y-110236000D01*
X85725000Y-108712000D02*
X84328000Y-110236000D01*
X85090000Y-67310000D02*
X84455000Y-67945000D01*
X84455000Y-67945000D02*
X84455000Y-74295000D01*
X84455000Y-74295000D02*
X85090000Y-74930000D01*
X81788000Y-94488000D02*
X80772000Y-93472000D01*
X81788000Y-103632000D02*
X81788000Y-94488000D01*
X83312000Y-105156000D02*
X81788000Y-103632000D01*
X94488000Y-110236000D02*
X94488000Y-107696000D01*
X93980000Y-110744000D02*
X94488000Y-110236000D01*
X96012000Y-97536000D02*
X97028000Y-96520000D01*
X96012000Y-101092000D02*
X96012000Y-97536000D01*
X96012000Y-109220000D02*
X96012000Y-107696000D01*
X95504000Y-109728000D02*
X96012000Y-109220000D01*
X93980000Y-92456000D02*
X93980000Y-86614000D01*
X99060000Y-95504000D02*
X94996000Y-95504000D01*
X100076000Y-96520000D02*
X99060000Y-95504000D01*
X96520000Y-78740000D02*
X92964000Y-78740000D01*
X92456000Y-91948000D02*
X92456000Y-91440000D01*
X91948000Y-92456000D02*
X92456000Y-91948000D01*
X90424000Y-92456000D02*
X91948000Y-92456000D01*
X54356000Y-91694000D02*
X54356000Y-88900000D01*
X54610000Y-91948000D02*
X54356000Y-91694000D01*
X66294000Y-94234000D02*
X62865000Y-94234000D01*
X62865000Y-94234000D02*
X62230000Y-94869000D01*
X62230000Y-94869000D02*
X56261000Y-94869000D01*
X55880000Y-72644000D02*
X55880000Y-76200000D01*
X70104000Y-72644000D02*
X70104000Y-76835000D01*
M02*
