G04 #@! TF.FileFunction,Soldermask,Top*
%FSLAX46Y46*%
G04 Gerber Fmt 4.6, Leading zero omitted, Abs format (unit mm)*
G04 Created by KiCad (PCBNEW 4.0.7) date 01/15/18 20:31:51*
%MOMM*%
%LPD*%
G01*
G04 APERTURE LIST*
%ADD10C,0.100000*%
%ADD11R,2.400000X2.400000*%
%ADD12C,2.400000*%
%ADD13R,3.910000X2.940000*%
%ADD14R,1.150000X1.600000*%
%ADD15R,3.600000X1.900000*%
%ADD16R,1.900000X1.650000*%
%ADD17R,1.650000X1.900000*%
%ADD18R,2.400000X2.100000*%
%ADD19R,1.100000X2.150000*%
%ADD20R,1.700000X1.900000*%
%ADD21R,1.200000X1.900000*%
%ADD22R,1.850000X1.400000*%
%ADD23R,1.200000X1.800000*%
%ADD24R,1.900000X1.900000*%
%ADD25R,1.400000X1.950000*%
%ADD26R,2.100000X2.100000*%
%ADD27O,2.100000X2.100000*%
%ADD28R,2.800000X4.600000*%
%ADD29R,1.300000X1.200000*%
%ADD30R,2.200000X2.500000*%
%ADD31R,1.900000X1.700000*%
%ADD32R,1.950000X1.700000*%
%ADD33R,1.050000X1.960000*%
%ADD34R,2.000000X0.950000*%
%ADD35R,0.950000X2.000000*%
%ADD36R,1.900000X1.000000*%
%ADD37C,2.600000*%
G04 APERTURE END LIST*
D10*
D11*
X66294000Y-94234000D03*
D12*
X66294000Y-81534000D03*
D13*
X114046000Y-73204000D03*
X114046000Y-102564000D03*
D14*
X52070000Y-92898000D03*
X52070000Y-90998000D03*
X59512200Y-93533000D03*
X59512200Y-91633000D03*
D15*
X85312000Y-80772000D03*
X81312000Y-80772000D03*
D16*
X82570000Y-83185000D03*
X85070000Y-83185000D03*
X82570000Y-90805000D03*
X85070000Y-90805000D03*
D17*
X106045000Y-73005000D03*
X106045000Y-70505000D03*
D18*
X58706000Y-104140000D03*
X62706000Y-104140000D03*
X58706000Y-99060000D03*
X62706000Y-99060000D03*
D19*
X81280000Y-107047000D03*
D20*
X80080000Y-106922000D03*
D21*
X79830000Y-99322000D03*
D22*
X80155000Y-97822000D03*
D23*
X91780000Y-98672000D03*
D19*
X82380000Y-107047000D03*
X83480000Y-107047000D03*
X84580000Y-107047000D03*
X85680000Y-107047000D03*
X86780000Y-107047000D03*
X87880000Y-107047000D03*
X88980000Y-107047000D03*
D24*
X91430000Y-106922000D03*
D25*
X91380000Y-96247000D03*
D26*
X97790000Y-99060000D03*
D27*
X100330000Y-99060000D03*
X97790000Y-101600000D03*
X100330000Y-101600000D03*
X97790000Y-104140000D03*
X100330000Y-104140000D03*
D26*
X79375000Y-69215000D03*
D27*
X81915000Y-69215000D03*
X79375000Y-71755000D03*
X81915000Y-71755000D03*
D28*
X59222200Y-85598000D03*
X54722200Y-85598000D03*
D29*
X71104000Y-88834000D03*
X71104000Y-86934000D03*
X69104000Y-87884000D03*
D30*
X84970000Y-88445000D03*
X84970000Y-85545000D03*
X82670000Y-85545000D03*
X82670000Y-88445000D03*
D31*
X73740000Y-96520000D03*
X71040000Y-96520000D03*
X73740000Y-100330000D03*
X71040000Y-100330000D03*
X71040000Y-104140000D03*
X73740000Y-104140000D03*
X73740000Y-107950000D03*
X71040000Y-107950000D03*
X72945000Y-88900000D03*
X75645000Y-88900000D03*
X72945000Y-86995000D03*
X75645000Y-86995000D03*
X53260000Y-104140000D03*
X55960000Y-104140000D03*
X53260000Y-99060000D03*
X55960000Y-99060000D03*
D20*
X100076000Y-83138000D03*
X100076000Y-80438000D03*
D31*
X86280000Y-68580000D03*
X88980000Y-68580000D03*
X86280000Y-73660000D03*
X88980000Y-73660000D03*
X58086000Y-78232000D03*
X60786000Y-78232000D03*
X71802000Y-78232000D03*
X74502000Y-78232000D03*
X51482000Y-78232000D03*
X54182000Y-78232000D03*
X65706000Y-78232000D03*
X68406000Y-78232000D03*
D32*
X51905000Y-68870000D03*
X59855000Y-68870000D03*
X51905000Y-73370000D03*
X59855000Y-73370000D03*
X65875000Y-68870000D03*
X73825000Y-68870000D03*
X65875000Y-73370000D03*
X73825000Y-73370000D03*
D33*
X57668200Y-89582000D03*
X56718200Y-89582000D03*
X55768200Y-89582000D03*
X55768200Y-92282000D03*
X57668200Y-92282000D03*
D34*
X88714000Y-82544000D03*
X88714000Y-83344000D03*
X88714000Y-84144000D03*
X88714000Y-84944000D03*
X88714000Y-85744000D03*
X88714000Y-86544000D03*
X88714000Y-87344000D03*
X88714000Y-88144000D03*
D35*
X90164000Y-89594000D03*
X90964000Y-89594000D03*
X91764000Y-89594000D03*
X92564000Y-89594000D03*
X93364000Y-89594000D03*
X94164000Y-89594000D03*
X94964000Y-89594000D03*
X95764000Y-89594000D03*
D34*
X97214000Y-88144000D03*
X97214000Y-87344000D03*
X97214000Y-86544000D03*
X97214000Y-85744000D03*
X97214000Y-84944000D03*
X97214000Y-84144000D03*
X97214000Y-83344000D03*
X97214000Y-82544000D03*
D35*
X95764000Y-81094000D03*
X94964000Y-81094000D03*
X94164000Y-81094000D03*
X93364000Y-81094000D03*
X92564000Y-81094000D03*
X91764000Y-81094000D03*
X90964000Y-81094000D03*
X90164000Y-81094000D03*
D36*
X94410000Y-66675000D03*
X94410000Y-67945000D03*
X94410000Y-69215000D03*
X94410000Y-70485000D03*
X94410000Y-71755000D03*
X94410000Y-73025000D03*
X94410000Y-74295000D03*
X94410000Y-75565000D03*
X103710000Y-75565000D03*
X103710000Y-74295000D03*
X103710000Y-73025000D03*
X103710000Y-71755000D03*
X103710000Y-70485000D03*
X103710000Y-69215000D03*
X103710000Y-67945000D03*
X103710000Y-66675000D03*
D37*
X123190000Y-66040000D03*
X48260000Y-66040000D03*
X123190000Y-107950000D03*
X48260000Y-107950000D03*
M02*
