G04 #@! TF.FileFunction,Legend,Top*
%FSLAX46Y46*%
G04 Gerber Fmt 4.6, Leading zero omitted, Abs format (unit mm)*
G04 Created by KiCad (PCBNEW 4.0.7) date 02/28/18 21:52:48*
%MOMM*%
%LPD*%
G01*
G04 APERTURE LIST*
%ADD10C,0.100000*%
%ADD11C,0.120000*%
%ADD12C,0.150000*%
G04 APERTURE END LIST*
D10*
D11*
X150231811Y-91925830D02*
G75*
G02X154733600Y-89079200I8111789J-7845370D01*
G01*
X166455389Y-107616570D02*
G75*
G02X161953600Y-110463200I-8111789J7845370D01*
G01*
X150231811Y-107616570D02*
G75*
G03X154733600Y-110463200I8111789J7845370D01*
G01*
X166455389Y-91925830D02*
G75*
G03X161953600Y-89079200I-8111789J-7845370D01*
G01*
X156443600Y-85461200D02*
X154733600Y-85461200D01*
X154733600Y-89079200D02*
X154733600Y-85461200D01*
X150233600Y-95911200D02*
X150233600Y-91923900D01*
X152433600Y-98111200D02*
X150233600Y-95911200D01*
X152433600Y-101431200D02*
X152433600Y-98111200D01*
X152433600Y-101431200D02*
X150233600Y-103631200D01*
X150233600Y-107618500D02*
X150233600Y-103631200D01*
X156443600Y-114081200D02*
X154733600Y-114081200D01*
X154733600Y-114081200D02*
X154733600Y-110463200D01*
X161953600Y-110463200D02*
X161953600Y-114081200D01*
X160243600Y-114081200D02*
X161953600Y-114081200D01*
X166453600Y-91923900D02*
X166453600Y-107618500D01*
X160243600Y-85461200D02*
X161953600Y-85461200D01*
X161953600Y-85461200D02*
X161953600Y-89079200D01*
X143504400Y-85588400D02*
X142804400Y-85588400D01*
X142804400Y-84388400D02*
X143504400Y-84388400D01*
X143453600Y-92243200D02*
X142753600Y-92243200D01*
X142753600Y-91043200D02*
X143453600Y-91043200D01*
X143453600Y-90820800D02*
X142753600Y-90820800D01*
X142753600Y-89620800D02*
X143453600Y-89620800D01*
X129738500Y-99338500D02*
X130738500Y-99338500D01*
X130738500Y-97638500D02*
X129738500Y-97638500D01*
X130675000Y-103925000D02*
X129675000Y-103925000D01*
X129675000Y-105625000D02*
X130675000Y-105625000D01*
X138951600Y-88349200D02*
X138951600Y-89349200D01*
X140651600Y-89349200D02*
X140651600Y-88349200D01*
X122264800Y-113653200D02*
X122264800Y-115353200D01*
X122314800Y-115353200D02*
X126364800Y-115353200D01*
X122314800Y-113653200D02*
X126364800Y-113653200D01*
X122264800Y-111011600D02*
X122264800Y-112711600D01*
X122314800Y-112711600D02*
X126364800Y-112711600D01*
X122314800Y-111011600D02*
X126364800Y-111011600D01*
X121358000Y-109004000D02*
X115058000Y-109004000D01*
X120658000Y-96134000D02*
X115058000Y-96134000D01*
X125068000Y-109004000D02*
X123258000Y-109004000D01*
X125068000Y-96134000D02*
X125068000Y-107394000D01*
X123908000Y-96134000D02*
X125068000Y-96134000D01*
X125068000Y-108894000D02*
X125068000Y-109004000D01*
X144871600Y-90738800D02*
X144871600Y-85638800D01*
X149971600Y-90738800D02*
X149971600Y-85638800D01*
X112930400Y-110078400D02*
X112930400Y-111008400D01*
X112930400Y-113238400D02*
X112930400Y-112308400D01*
X112930400Y-113238400D02*
X115090400Y-113238400D01*
X112930400Y-110078400D02*
X114390400Y-110078400D01*
X115604400Y-112360000D02*
X115604400Y-111160000D01*
X117364400Y-111160000D02*
X117364400Y-112360000D01*
X114442800Y-115383200D02*
X113242800Y-115383200D01*
X113242800Y-113623200D02*
X114442800Y-113623200D01*
X120513400Y-115383200D02*
X119313400Y-115383200D01*
X119313400Y-113623200D02*
X120513400Y-113623200D01*
X120513400Y-112741600D02*
X119313400Y-112741600D01*
X119313400Y-110981600D02*
X120513400Y-110981600D01*
X136553500Y-96130000D02*
X135353500Y-96130000D01*
X135353500Y-94370000D02*
X136553500Y-94370000D01*
X117757500Y-94034500D02*
X116557500Y-94034500D01*
X116557500Y-92274500D02*
X117757500Y-92274500D01*
X128552500Y-94034500D02*
X127352500Y-94034500D01*
X127352500Y-92274500D02*
X128552500Y-92274500D01*
X113884000Y-94034500D02*
X112684000Y-94034500D01*
X112684000Y-92274500D02*
X113884000Y-92274500D01*
X124869500Y-94034500D02*
X123669500Y-94034500D01*
X123669500Y-92274500D02*
X124869500Y-92274500D01*
X126996400Y-108297600D02*
X126996400Y-107297600D01*
X130356400Y-108297600D02*
X130356400Y-107297600D01*
X140225500Y-93924500D02*
X140225500Y-94924500D01*
X138285500Y-93924500D02*
X138285500Y-94924500D01*
X118415200Y-91439600D02*
X118415200Y-91689600D01*
X118415200Y-91689600D02*
X112115200Y-91689600D01*
X112115200Y-91689600D02*
X112115200Y-91439600D01*
X118415200Y-86939600D02*
X118415200Y-89539600D01*
X112115200Y-85039600D02*
X112115200Y-84789600D01*
X112115200Y-84789600D02*
X118415200Y-84789600D01*
X118415200Y-84789600D02*
X118415200Y-85039600D01*
X112115200Y-89539600D02*
X112115200Y-86939600D01*
X128930800Y-91439600D02*
X128930800Y-91689600D01*
X128930800Y-91689600D02*
X122630800Y-91689600D01*
X122630800Y-91689600D02*
X122630800Y-91439600D01*
X128930800Y-86939600D02*
X128930800Y-89539600D01*
X122630800Y-85039600D02*
X122630800Y-84789600D01*
X122630800Y-84789600D02*
X128930800Y-84789600D01*
X128930800Y-84789600D02*
X128930800Y-85039600D01*
X122630800Y-89539600D02*
X122630800Y-86939600D01*
X143546400Y-85918400D02*
X141746400Y-85918400D01*
X141746400Y-89138400D02*
X144196400Y-89138400D01*
D12*
X134360500Y-97975000D02*
X134360500Y-98200000D01*
X141610500Y-97975000D02*
X141610500Y-98300000D01*
X141610500Y-105225000D02*
X141610500Y-104900000D01*
X134360500Y-105225000D02*
X134360500Y-104900000D01*
X134360500Y-97975000D02*
X134685500Y-97975000D01*
X134360500Y-105225000D02*
X134685500Y-105225000D01*
X141610500Y-105225000D02*
X141285500Y-105225000D01*
X141610500Y-97975000D02*
X141285500Y-97975000D01*
X134360500Y-98200000D02*
X132935500Y-98200000D01*
X132900600Y-86020200D02*
X132900600Y-86070200D01*
X137050600Y-86020200D02*
X137050600Y-86165200D01*
X137050600Y-91170200D02*
X137050600Y-91025200D01*
X132900600Y-91170200D02*
X132900600Y-91025200D01*
X132900600Y-86020200D02*
X137050600Y-86020200D01*
X132900600Y-91170200D02*
X137050600Y-91170200D01*
X132900600Y-86070200D02*
X131500600Y-86070200D01*
D11*
X130115000Y-114334600D02*
X130115000Y-111674600D01*
X142935000Y-114334600D02*
X142935000Y-111674600D01*
X130115000Y-111674600D02*
X133225000Y-111674600D01*
X130685000Y-114334600D02*
X130685000Y-115854600D01*
X130115000Y-114334600D02*
X130685000Y-114334600D01*
X142365000Y-111674600D02*
X142935000Y-111674600D01*
X134745000Y-111674600D02*
X138305000Y-111674600D01*
X139825000Y-111674600D02*
X142935000Y-111674600D01*
X132205000Y-114334600D02*
X135765000Y-114334600D01*
X137285000Y-114334600D02*
X140845000Y-114334600D01*
X145249000Y-106037000D02*
X145249000Y-105037000D01*
X143549000Y-105037000D02*
X143549000Y-106037000D01*
X131875800Y-99625400D02*
X128575800Y-99625400D01*
X128575800Y-99625400D02*
X128575800Y-103625400D01*
D12*
X149331371Y-102747390D02*
X149378990Y-102604533D01*
X149426610Y-102556914D01*
X149521848Y-102509295D01*
X149664705Y-102509295D01*
X149759943Y-102556914D01*
X149807562Y-102604533D01*
X149855181Y-102699771D01*
X149855181Y-103080724D01*
X148855181Y-103080724D01*
X148855181Y-102747390D01*
X148902800Y-102652152D01*
X148950419Y-102604533D01*
X149045657Y-102556914D01*
X149140895Y-102556914D01*
X149236133Y-102604533D01*
X149283752Y-102652152D01*
X149331371Y-102747390D01*
X149331371Y-103080724D01*
X149569467Y-102128343D02*
X149569467Y-101652152D01*
X149855181Y-102223581D02*
X148855181Y-101890248D01*
X149855181Y-101556914D01*
X148855181Y-101366438D02*
X148855181Y-100795009D01*
X149855181Y-101080724D02*
X148855181Y-101080724D01*
X149950419Y-100699771D02*
X149950419Y-99937866D01*
X149855181Y-99128342D02*
X149378990Y-99461676D01*
X149855181Y-99699771D02*
X148855181Y-99699771D01*
X148855181Y-99318818D01*
X148902800Y-99223580D01*
X148950419Y-99175961D01*
X149045657Y-99128342D01*
X149188514Y-99128342D01*
X149283752Y-99175961D01*
X149331371Y-99223580D01*
X149378990Y-99318818D01*
X149378990Y-99699771D01*
X148855181Y-98842628D02*
X148855181Y-98271199D01*
X149855181Y-98556914D02*
X148855181Y-98556914D01*
X149759943Y-97366437D02*
X149807562Y-97414056D01*
X149855181Y-97556913D01*
X149855181Y-97652151D01*
X149807562Y-97795009D01*
X149712324Y-97890247D01*
X149617086Y-97937866D01*
X149426610Y-97985485D01*
X149283752Y-97985485D01*
X149093276Y-97937866D01*
X148998038Y-97890247D01*
X148902800Y-97795009D01*
X148855181Y-97652151D01*
X148855181Y-97556913D01*
X148902800Y-97414056D01*
X148950419Y-97366437D01*
X149855181Y-96414056D02*
X149855181Y-96985485D01*
X149855181Y-96699771D02*
X148855181Y-96699771D01*
X148998038Y-96795009D01*
X149093276Y-96890247D01*
X149140895Y-96985485D01*
X140828734Y-85320143D02*
X140781115Y-85367762D01*
X140638258Y-85415381D01*
X140543020Y-85415381D01*
X140400162Y-85367762D01*
X140304924Y-85272524D01*
X140257305Y-85177286D01*
X140209686Y-84986810D01*
X140209686Y-84843952D01*
X140257305Y-84653476D01*
X140304924Y-84558238D01*
X140400162Y-84463000D01*
X140543020Y-84415381D01*
X140638258Y-84415381D01*
X140781115Y-84463000D01*
X140828734Y-84510619D01*
X141781115Y-85415381D02*
X141209686Y-85415381D01*
X141495400Y-85415381D02*
X141495400Y-84415381D01*
X141400162Y-84558238D01*
X141304924Y-84653476D01*
X141209686Y-84701095D01*
X145324534Y-92355943D02*
X145276915Y-92403562D01*
X145134058Y-92451181D01*
X145038820Y-92451181D01*
X144895962Y-92403562D01*
X144800724Y-92308324D01*
X144753105Y-92213086D01*
X144705486Y-92022610D01*
X144705486Y-91879752D01*
X144753105Y-91689276D01*
X144800724Y-91594038D01*
X144895962Y-91498800D01*
X145038820Y-91451181D01*
X145134058Y-91451181D01*
X145276915Y-91498800D01*
X145324534Y-91546419D01*
X145705486Y-91546419D02*
X145753105Y-91498800D01*
X145848343Y-91451181D01*
X146086439Y-91451181D01*
X146181677Y-91498800D01*
X146229296Y-91546419D01*
X146276915Y-91641657D01*
X146276915Y-91736895D01*
X146229296Y-91879752D01*
X145657867Y-92451181D01*
X146276915Y-92451181D01*
X141530343Y-91251066D02*
X141577962Y-91298685D01*
X141625581Y-91441542D01*
X141625581Y-91536780D01*
X141577962Y-91679638D01*
X141482724Y-91774876D01*
X141387486Y-91822495D01*
X141197010Y-91870114D01*
X141054152Y-91870114D01*
X140863676Y-91822495D01*
X140768438Y-91774876D01*
X140673200Y-91679638D01*
X140625581Y-91536780D01*
X140625581Y-91441542D01*
X140673200Y-91298685D01*
X140720819Y-91251066D01*
X140625581Y-90917733D02*
X140625581Y-90298685D01*
X141006533Y-90632019D01*
X141006533Y-90489161D01*
X141054152Y-90393923D01*
X141101771Y-90346304D01*
X141197010Y-90298685D01*
X141435105Y-90298685D01*
X141530343Y-90346304D01*
X141577962Y-90393923D01*
X141625581Y-90489161D01*
X141625581Y-90774876D01*
X141577962Y-90870114D01*
X141530343Y-90917733D01*
X127277834Y-98845643D02*
X127230215Y-98893262D01*
X127087358Y-98940881D01*
X126992120Y-98940881D01*
X126849262Y-98893262D01*
X126754024Y-98798024D01*
X126706405Y-98702786D01*
X126658786Y-98512310D01*
X126658786Y-98369452D01*
X126706405Y-98178976D01*
X126754024Y-98083738D01*
X126849262Y-97988500D01*
X126992120Y-97940881D01*
X127087358Y-97940881D01*
X127230215Y-97988500D01*
X127277834Y-98036119D01*
X128182596Y-97940881D02*
X127706405Y-97940881D01*
X127658786Y-98417071D01*
X127706405Y-98369452D01*
X127801643Y-98321833D01*
X128039739Y-98321833D01*
X128134977Y-98369452D01*
X128182596Y-98417071D01*
X128230215Y-98512310D01*
X128230215Y-98750405D01*
X128182596Y-98845643D01*
X128134977Y-98893262D01*
X128039739Y-98940881D01*
X127801643Y-98940881D01*
X127706405Y-98893262D01*
X127658786Y-98845643D01*
X127214334Y-105068643D02*
X127166715Y-105116262D01*
X127023858Y-105163881D01*
X126928620Y-105163881D01*
X126785762Y-105116262D01*
X126690524Y-105021024D01*
X126642905Y-104925786D01*
X126595286Y-104735310D01*
X126595286Y-104592452D01*
X126642905Y-104401976D01*
X126690524Y-104306738D01*
X126785762Y-104211500D01*
X126928620Y-104163881D01*
X127023858Y-104163881D01*
X127166715Y-104211500D01*
X127214334Y-104259119D01*
X128071477Y-104163881D02*
X127881000Y-104163881D01*
X127785762Y-104211500D01*
X127738143Y-104259119D01*
X127642905Y-104401976D01*
X127595286Y-104592452D01*
X127595286Y-104973405D01*
X127642905Y-105068643D01*
X127690524Y-105116262D01*
X127785762Y-105163881D01*
X127976239Y-105163881D01*
X128071477Y-105116262D01*
X128119096Y-105068643D01*
X128166715Y-104973405D01*
X128166715Y-104735310D01*
X128119096Y-104640071D01*
X128071477Y-104592452D01*
X127976239Y-104544833D01*
X127785762Y-104544833D01*
X127690524Y-104592452D01*
X127642905Y-104640071D01*
X127595286Y-104735310D01*
X139634934Y-86615543D02*
X139587315Y-86663162D01*
X139444458Y-86710781D01*
X139349220Y-86710781D01*
X139206362Y-86663162D01*
X139111124Y-86567924D01*
X139063505Y-86472686D01*
X139015886Y-86282210D01*
X139015886Y-86139352D01*
X139063505Y-85948876D01*
X139111124Y-85853638D01*
X139206362Y-85758400D01*
X139349220Y-85710781D01*
X139444458Y-85710781D01*
X139587315Y-85758400D01*
X139634934Y-85806019D01*
X139968267Y-85710781D02*
X140634934Y-85710781D01*
X140206362Y-86710781D01*
X127836705Y-114955581D02*
X127836705Y-113955581D01*
X128074800Y-113955581D01*
X128217658Y-114003200D01*
X128312896Y-114098438D01*
X128360515Y-114193676D01*
X128408134Y-114384152D01*
X128408134Y-114527010D01*
X128360515Y-114717486D01*
X128312896Y-114812724D01*
X128217658Y-114907962D01*
X128074800Y-114955581D01*
X127836705Y-114955581D01*
X129360515Y-114955581D02*
X128789086Y-114955581D01*
X129074800Y-114955581D02*
X129074800Y-113955581D01*
X128979562Y-114098438D01*
X128884324Y-114193676D01*
X128789086Y-114241295D01*
X127684305Y-112313981D02*
X127684305Y-111313981D01*
X127922400Y-111313981D01*
X128065258Y-111361600D01*
X128160496Y-111456838D01*
X128208115Y-111552076D01*
X128255734Y-111742552D01*
X128255734Y-111885410D01*
X128208115Y-112075886D01*
X128160496Y-112171124D01*
X128065258Y-112266362D01*
X127922400Y-112313981D01*
X127684305Y-112313981D01*
X128636686Y-111409219D02*
X128684305Y-111361600D01*
X128779543Y-111313981D01*
X129017639Y-111313981D01*
X129112877Y-111361600D01*
X129160496Y-111409219D01*
X129208115Y-111504457D01*
X129208115Y-111599695D01*
X129160496Y-111742552D01*
X128589067Y-112313981D01*
X129208115Y-112313981D01*
X111020267Y-105624381D02*
X111020267Y-106338667D01*
X110972647Y-106481524D01*
X110877409Y-106576762D01*
X110734552Y-106624381D01*
X110639314Y-106624381D01*
X112020267Y-106624381D02*
X111448838Y-106624381D01*
X111734552Y-106624381D02*
X111734552Y-105624381D01*
X111639314Y-105767238D01*
X111544076Y-105862476D01*
X111448838Y-105910095D01*
X150912534Y-88641181D02*
X150436343Y-88641181D01*
X150436343Y-87641181D01*
X151769677Y-88641181D02*
X151198248Y-88641181D01*
X151483962Y-88641181D02*
X151483962Y-87641181D01*
X151388724Y-87784038D01*
X151293486Y-87879276D01*
X151198248Y-87926895D01*
X110750362Y-112155219D02*
X110655124Y-112107600D01*
X110559886Y-112012362D01*
X110417029Y-111869505D01*
X110321790Y-111821886D01*
X110226552Y-111821886D01*
X110274171Y-112059981D02*
X110178933Y-112012362D01*
X110083695Y-111917124D01*
X110036076Y-111726648D01*
X110036076Y-111393314D01*
X110083695Y-111202838D01*
X110178933Y-111107600D01*
X110274171Y-111059981D01*
X110464648Y-111059981D01*
X110559886Y-111107600D01*
X110655124Y-111202838D01*
X110702743Y-111393314D01*
X110702743Y-111726648D01*
X110655124Y-111917124D01*
X110559886Y-112012362D01*
X110464648Y-112059981D01*
X110274171Y-112059981D01*
X111655124Y-112059981D02*
X111083695Y-112059981D01*
X111369409Y-112059981D02*
X111369409Y-111059981D01*
X111274171Y-111202838D01*
X111178933Y-111298076D01*
X111083695Y-111345695D01*
X116317734Y-114549181D02*
X115984400Y-114072990D01*
X115746305Y-114549181D02*
X115746305Y-113549181D01*
X116127258Y-113549181D01*
X116222496Y-113596800D01*
X116270115Y-113644419D01*
X116317734Y-113739657D01*
X116317734Y-113882514D01*
X116270115Y-113977752D01*
X116222496Y-114025371D01*
X116127258Y-114072990D01*
X115746305Y-114072990D01*
X117270115Y-114549181D02*
X116698686Y-114549181D01*
X116984400Y-114549181D02*
X116984400Y-113549181D01*
X116889162Y-113692038D01*
X116793924Y-113787276D01*
X116698686Y-113834895D01*
X110882134Y-114955581D02*
X110548800Y-114479390D01*
X110310705Y-114955581D02*
X110310705Y-113955581D01*
X110691658Y-113955581D01*
X110786896Y-114003200D01*
X110834515Y-114050819D01*
X110882134Y-114146057D01*
X110882134Y-114288914D01*
X110834515Y-114384152D01*
X110786896Y-114431771D01*
X110691658Y-114479390D01*
X110310705Y-114479390D01*
X111263086Y-114050819D02*
X111310705Y-114003200D01*
X111405943Y-113955581D01*
X111644039Y-113955581D01*
X111739277Y-114003200D01*
X111786896Y-114050819D01*
X111834515Y-114146057D01*
X111834515Y-114241295D01*
X111786896Y-114384152D01*
X111215467Y-114955581D01*
X111834515Y-114955581D01*
X116851134Y-115869981D02*
X116517800Y-115393790D01*
X116279705Y-115869981D02*
X116279705Y-114869981D01*
X116660658Y-114869981D01*
X116755896Y-114917600D01*
X116803515Y-114965219D01*
X116851134Y-115060457D01*
X116851134Y-115203314D01*
X116803515Y-115298552D01*
X116755896Y-115346171D01*
X116660658Y-115393790D01*
X116279705Y-115393790D01*
X117184467Y-114869981D02*
X117803515Y-114869981D01*
X117470181Y-115250933D01*
X117613039Y-115250933D01*
X117708277Y-115298552D01*
X117755896Y-115346171D01*
X117803515Y-115441410D01*
X117803515Y-115679505D01*
X117755896Y-115774743D01*
X117708277Y-115822362D01*
X117613039Y-115869981D01*
X117327324Y-115869981D01*
X117232086Y-115822362D01*
X117184467Y-115774743D01*
X119746734Y-110637581D02*
X119413400Y-110161390D01*
X119175305Y-110637581D02*
X119175305Y-109637581D01*
X119556258Y-109637581D01*
X119651496Y-109685200D01*
X119699115Y-109732819D01*
X119746734Y-109828057D01*
X119746734Y-109970914D01*
X119699115Y-110066152D01*
X119651496Y-110113771D01*
X119556258Y-110161390D01*
X119175305Y-110161390D01*
X120603877Y-109970914D02*
X120603877Y-110637581D01*
X120365781Y-109589962D02*
X120127686Y-110304248D01*
X120746734Y-110304248D01*
X135736034Y-93924381D02*
X135402700Y-93448190D01*
X135164605Y-93924381D02*
X135164605Y-92924381D01*
X135545558Y-92924381D01*
X135640796Y-92972000D01*
X135688415Y-93019619D01*
X135736034Y-93114857D01*
X135736034Y-93257714D01*
X135688415Y-93352952D01*
X135640796Y-93400571D01*
X135545558Y-93448190D01*
X135164605Y-93448190D01*
X136640796Y-92924381D02*
X136164605Y-92924381D01*
X136116986Y-93400571D01*
X136164605Y-93352952D01*
X136259843Y-93305333D01*
X136497939Y-93305333D01*
X136593177Y-93352952D01*
X136640796Y-93400571D01*
X136688415Y-93495810D01*
X136688415Y-93733905D01*
X136640796Y-93829143D01*
X136593177Y-93876762D01*
X136497939Y-93924381D01*
X136259843Y-93924381D01*
X136164605Y-93876762D01*
X136116986Y-93829143D01*
X119581634Y-93606881D02*
X119248300Y-93130690D01*
X119010205Y-93606881D02*
X119010205Y-92606881D01*
X119391158Y-92606881D01*
X119486396Y-92654500D01*
X119534015Y-92702119D01*
X119581634Y-92797357D01*
X119581634Y-92940214D01*
X119534015Y-93035452D01*
X119486396Y-93083071D01*
X119391158Y-93130690D01*
X119010205Y-93130690D01*
X120438777Y-92606881D02*
X120248300Y-92606881D01*
X120153062Y-92654500D01*
X120105443Y-92702119D01*
X120010205Y-92844976D01*
X119962586Y-93035452D01*
X119962586Y-93416405D01*
X120010205Y-93511643D01*
X120057824Y-93559262D01*
X120153062Y-93606881D01*
X120343539Y-93606881D01*
X120438777Y-93559262D01*
X120486396Y-93511643D01*
X120534015Y-93416405D01*
X120534015Y-93178310D01*
X120486396Y-93083071D01*
X120438777Y-93035452D01*
X120343539Y-92987833D01*
X120153062Y-92987833D01*
X120057824Y-93035452D01*
X120010205Y-93083071D01*
X119962586Y-93178310D01*
X130389334Y-93670381D02*
X130056000Y-93194190D01*
X129817905Y-93670381D02*
X129817905Y-92670381D01*
X130198858Y-92670381D01*
X130294096Y-92718000D01*
X130341715Y-92765619D01*
X130389334Y-92860857D01*
X130389334Y-93003714D01*
X130341715Y-93098952D01*
X130294096Y-93146571D01*
X130198858Y-93194190D01*
X129817905Y-93194190D01*
X130722667Y-92670381D02*
X131389334Y-92670381D01*
X130960762Y-93670381D01*
X110577334Y-93606881D02*
X110244000Y-93130690D01*
X110005905Y-93606881D02*
X110005905Y-92606881D01*
X110386858Y-92606881D01*
X110482096Y-92654500D01*
X110529715Y-92702119D01*
X110577334Y-92797357D01*
X110577334Y-92940214D01*
X110529715Y-93035452D01*
X110482096Y-93083071D01*
X110386858Y-93130690D01*
X110005905Y-93130690D01*
X111148762Y-93035452D02*
X111053524Y-92987833D01*
X111005905Y-92940214D01*
X110958286Y-92844976D01*
X110958286Y-92797357D01*
X111005905Y-92702119D01*
X111053524Y-92654500D01*
X111148762Y-92606881D01*
X111339239Y-92606881D01*
X111434477Y-92654500D01*
X111482096Y-92702119D01*
X111529715Y-92797357D01*
X111529715Y-92844976D01*
X111482096Y-92940214D01*
X111434477Y-92987833D01*
X111339239Y-93035452D01*
X111148762Y-93035452D01*
X111053524Y-93083071D01*
X111005905Y-93130690D01*
X110958286Y-93225929D01*
X110958286Y-93416405D01*
X111005905Y-93511643D01*
X111053524Y-93559262D01*
X111148762Y-93606881D01*
X111339239Y-93606881D01*
X111434477Y-93559262D01*
X111482096Y-93511643D01*
X111529715Y-93416405D01*
X111529715Y-93225929D01*
X111482096Y-93130690D01*
X111434477Y-93083071D01*
X111339239Y-93035452D01*
X121562834Y-93606881D02*
X121229500Y-93130690D01*
X120991405Y-93606881D02*
X120991405Y-92606881D01*
X121372358Y-92606881D01*
X121467596Y-92654500D01*
X121515215Y-92702119D01*
X121562834Y-92797357D01*
X121562834Y-92940214D01*
X121515215Y-93035452D01*
X121467596Y-93083071D01*
X121372358Y-93130690D01*
X120991405Y-93130690D01*
X122039024Y-93606881D02*
X122229500Y-93606881D01*
X122324739Y-93559262D01*
X122372358Y-93511643D01*
X122467596Y-93368786D01*
X122515215Y-93178310D01*
X122515215Y-92797357D01*
X122467596Y-92702119D01*
X122419977Y-92654500D01*
X122324739Y-92606881D01*
X122134262Y-92606881D01*
X122039024Y-92654500D01*
X121991405Y-92702119D01*
X121943786Y-92797357D01*
X121943786Y-93035452D01*
X121991405Y-93130690D01*
X122039024Y-93178310D01*
X122134262Y-93225929D01*
X122324739Y-93225929D01*
X122419977Y-93178310D01*
X122467596Y-93130690D01*
X122515215Y-93035452D01*
X131567324Y-108326181D02*
X131233990Y-107849990D01*
X130995895Y-108326181D02*
X130995895Y-107326181D01*
X131376848Y-107326181D01*
X131472086Y-107373800D01*
X131519705Y-107421419D01*
X131567324Y-107516657D01*
X131567324Y-107659514D01*
X131519705Y-107754752D01*
X131472086Y-107802371D01*
X131376848Y-107849990D01*
X130995895Y-107849990D01*
X131995895Y-108326181D02*
X131995895Y-107326181D01*
X132567324Y-108326181D01*
X132567324Y-107326181D01*
X133567324Y-108326181D02*
X132995895Y-108326181D01*
X133281609Y-108326181D02*
X133281609Y-107326181D01*
X133186371Y-107469038D01*
X133091133Y-107564276D01*
X132995895Y-107611895D01*
X141206624Y-94876881D02*
X140873290Y-94400690D01*
X140635195Y-94876881D02*
X140635195Y-93876881D01*
X141016148Y-93876881D01*
X141111386Y-93924500D01*
X141159005Y-93972119D01*
X141206624Y-94067357D01*
X141206624Y-94210214D01*
X141159005Y-94305452D01*
X141111386Y-94353071D01*
X141016148Y-94400690D01*
X140635195Y-94400690D01*
X141635195Y-94876881D02*
X141635195Y-93876881D01*
X142206624Y-94876881D01*
X142206624Y-93876881D01*
X142635195Y-93972119D02*
X142682814Y-93924500D01*
X142778052Y-93876881D01*
X143016148Y-93876881D01*
X143111386Y-93924500D01*
X143159005Y-93972119D01*
X143206624Y-94067357D01*
X143206624Y-94162595D01*
X143159005Y-94305452D01*
X142587576Y-94876881D01*
X143206624Y-94876881D01*
X113931867Y-84326362D02*
X114074724Y-84373981D01*
X114312820Y-84373981D01*
X114408058Y-84326362D01*
X114455677Y-84278743D01*
X114503296Y-84183505D01*
X114503296Y-84088267D01*
X114455677Y-83993029D01*
X114408058Y-83945410D01*
X114312820Y-83897790D01*
X114122343Y-83850171D01*
X114027105Y-83802552D01*
X113979486Y-83754933D01*
X113931867Y-83659695D01*
X113931867Y-83564457D01*
X113979486Y-83469219D01*
X114027105Y-83421600D01*
X114122343Y-83373981D01*
X114360439Y-83373981D01*
X114503296Y-83421600D01*
X114836629Y-83373981D02*
X115074724Y-84373981D01*
X115265201Y-83659695D01*
X115455677Y-84373981D01*
X115693772Y-83373981D01*
X116598534Y-84373981D02*
X116027105Y-84373981D01*
X116312819Y-84373981D02*
X116312819Y-83373981D01*
X116217581Y-83516838D01*
X116122343Y-83612076D01*
X116027105Y-83659695D01*
X124447467Y-84326362D02*
X124590324Y-84373981D01*
X124828420Y-84373981D01*
X124923658Y-84326362D01*
X124971277Y-84278743D01*
X125018896Y-84183505D01*
X125018896Y-84088267D01*
X124971277Y-83993029D01*
X124923658Y-83945410D01*
X124828420Y-83897790D01*
X124637943Y-83850171D01*
X124542705Y-83802552D01*
X124495086Y-83754933D01*
X124447467Y-83659695D01*
X124447467Y-83564457D01*
X124495086Y-83469219D01*
X124542705Y-83421600D01*
X124637943Y-83373981D01*
X124876039Y-83373981D01*
X125018896Y-83421600D01*
X125352229Y-83373981D02*
X125590324Y-84373981D01*
X125780801Y-83659695D01*
X125971277Y-84373981D01*
X126209372Y-83373981D01*
X126542705Y-83469219D02*
X126590324Y-83421600D01*
X126685562Y-83373981D01*
X126923658Y-83373981D01*
X127018896Y-83421600D01*
X127066515Y-83469219D01*
X127114134Y-83564457D01*
X127114134Y-83659695D01*
X127066515Y-83802552D01*
X126495086Y-84373981D01*
X127114134Y-84373981D01*
X144830895Y-84085181D02*
X144830895Y-84894705D01*
X144878514Y-84989943D01*
X144926133Y-85037562D01*
X145021371Y-85085181D01*
X145211848Y-85085181D01*
X145307086Y-85037562D01*
X145354705Y-84989943D01*
X145402324Y-84894705D01*
X145402324Y-84085181D01*
X146402324Y-85085181D02*
X145830895Y-85085181D01*
X146116609Y-85085181D02*
X146116609Y-84085181D01*
X146021371Y-84228038D01*
X145926133Y-84323276D01*
X145830895Y-84370895D01*
X137172795Y-107199181D02*
X137172795Y-108008705D01*
X137220414Y-108103943D01*
X137268033Y-108151562D01*
X137363271Y-108199181D01*
X137553748Y-108199181D01*
X137648986Y-108151562D01*
X137696605Y-108103943D01*
X137744224Y-108008705D01*
X137744224Y-107199181D01*
X138172795Y-107294419D02*
X138220414Y-107246800D01*
X138315652Y-107199181D01*
X138553748Y-107199181D01*
X138648986Y-107246800D01*
X138696605Y-107294419D01*
X138744224Y-107389657D01*
X138744224Y-107484895D01*
X138696605Y-107627752D01*
X138125176Y-108199181D01*
X138744224Y-108199181D01*
X134213695Y-84547581D02*
X134213695Y-85357105D01*
X134261314Y-85452343D01*
X134308933Y-85499962D01*
X134404171Y-85547581D01*
X134594648Y-85547581D01*
X134689886Y-85499962D01*
X134737505Y-85452343D01*
X134785124Y-85357105D01*
X134785124Y-84547581D01*
X135166076Y-84547581D02*
X135785124Y-84547581D01*
X135451790Y-84928533D01*
X135594648Y-84928533D01*
X135689886Y-84976152D01*
X135737505Y-85023771D01*
X135785124Y-85119010D01*
X135785124Y-85357105D01*
X135737505Y-85452343D01*
X135689886Y-85499962D01*
X135594648Y-85547581D01*
X135308933Y-85547581D01*
X135213695Y-85499962D01*
X135166076Y-85452343D01*
X144065667Y-112456981D02*
X144065667Y-113171267D01*
X144018047Y-113314124D01*
X143922809Y-113409362D01*
X143779952Y-113456981D01*
X143684714Y-113456981D01*
X144494238Y-112552219D02*
X144541857Y-112504600D01*
X144637095Y-112456981D01*
X144875191Y-112456981D01*
X144970429Y-112504600D01*
X145018048Y-112552219D01*
X145065667Y-112647457D01*
X145065667Y-112742695D01*
X145018048Y-112885552D01*
X144446619Y-113456981D01*
X145065667Y-113456981D01*
X146111934Y-107519743D02*
X146064315Y-107567362D01*
X145921458Y-107614981D01*
X145826220Y-107614981D01*
X145683362Y-107567362D01*
X145588124Y-107472124D01*
X145540505Y-107376886D01*
X145492886Y-107186410D01*
X145492886Y-107043552D01*
X145540505Y-106853076D01*
X145588124Y-106757838D01*
X145683362Y-106662600D01*
X145826220Y-106614981D01*
X145921458Y-106614981D01*
X146064315Y-106662600D01*
X146111934Y-106710219D01*
X146969077Y-106948314D02*
X146969077Y-107614981D01*
X146730981Y-106567362D02*
X146492886Y-107281648D01*
X147111934Y-107281648D01*
X127349262Y-102147619D02*
X127254024Y-102100000D01*
X127158786Y-102004762D01*
X127015929Y-101861905D01*
X126920690Y-101814286D01*
X126825452Y-101814286D01*
X126873071Y-102052381D02*
X126777833Y-102004762D01*
X126682595Y-101909524D01*
X126634976Y-101719048D01*
X126634976Y-101385714D01*
X126682595Y-101195238D01*
X126777833Y-101100000D01*
X126873071Y-101052381D01*
X127063548Y-101052381D01*
X127158786Y-101100000D01*
X127254024Y-101195238D01*
X127301643Y-101385714D01*
X127301643Y-101719048D01*
X127254024Y-101909524D01*
X127158786Y-102004762D01*
X127063548Y-102052381D01*
X126873071Y-102052381D01*
X127682595Y-101147619D02*
X127730214Y-101100000D01*
X127825452Y-101052381D01*
X128063548Y-101052381D01*
X128158786Y-101100000D01*
X128206405Y-101147619D01*
X128254024Y-101242857D01*
X128254024Y-101338095D01*
X128206405Y-101480952D01*
X127634976Y-102052381D01*
X128254024Y-102052381D01*
X147248762Y-111815881D02*
X147820191Y-111815881D01*
X147534476Y-112815881D02*
X147534476Y-111815881D01*
X148153524Y-112292071D02*
X148486858Y-112292071D01*
X148629715Y-112815881D02*
X148153524Y-112815881D01*
X148153524Y-111815881D01*
X148629715Y-111815881D01*
X149010667Y-112768262D02*
X149153524Y-112815881D01*
X149391620Y-112815881D01*
X149486858Y-112768262D01*
X149534477Y-112720643D01*
X149582096Y-112625405D01*
X149582096Y-112530167D01*
X149534477Y-112434929D01*
X149486858Y-112387310D01*
X149391620Y-112339690D01*
X149201143Y-112292071D01*
X149105905Y-112244452D01*
X149058286Y-112196833D01*
X149010667Y-112101595D01*
X149010667Y-112006357D01*
X149058286Y-111911119D01*
X149105905Y-111863500D01*
X149201143Y-111815881D01*
X149439239Y-111815881D01*
X149582096Y-111863500D01*
X149867810Y-111815881D02*
X150439239Y-111815881D01*
X150153524Y-112815881D02*
X150153524Y-111815881D01*
M02*
