M48
;DRILL file {KiCad 4.0.7} date 02/28/18 21:52:42
;FORMAT={-:-/ absolute / inch / decimal}
FMAT,2
INCH,TZ
T1C0.016
T2C0.031
T3C0.040
%
G90
G05
M72
T1
X4.42Y-3.916
X4.42Y-4.002
X4.635Y-4.5075
X4.6825Y-4.35
X4.8Y-3.72
X4.865Y-3.4025
X4.87Y-3.885
X4.8825Y-3.72
X4.92Y-4.1425
X4.945Y-4.182
X4.953Y-4.572
X5.039Y-4.545
X5.1225Y-3.8175
X5.162Y-4.231
X5.226Y-4.348
X5.235Y-3.72
X5.245Y-3.825
X5.27Y-3.715
X5.27Y-3.8025
X5.33Y-4.0475
X5.3375Y-4.11
X5.3375Y-4.2275
X5.36Y-3.9575
X5.36Y-4.0125
X5.504Y-3.596
X5.5125Y-4.2625
X5.535Y-3.985
X5.5375Y-3.8975
X5.5975Y-4.2625
X5.613Y-3.445
X5.685Y-4.2375
X5.7125Y-3.8975
X6.235Y-4.41
T2
X5.86Y-4.5025
T3
X6.658Y-3.664
X6.658Y-4.164
T0
M30
